<?xml version="1.0" encoding="utf-8"?>
<!-- Generator: Adobe Illustrator 12.0.0, SVG Export Plug-In . SVG Version: 6.00 Build 51448)  -->
<!DOCTYPE svg PUBLIC "-//W3C//DTD SVG 1.0//EN" "http://www.w3.org/TR/2001/REC-SVG-20010904/DTD/svg10.dtd" [
	<!ENTITY ns_svg "http://www.w3.org/2000/svg">
	<!ENTITY ns_xlink "http://www.w3.org/1999/xlink">
]>
<svg  version="1.0" id="Layer_1" xmlns="&ns_svg;" xmlns:xlink="&ns_xlink;" width="147.649" height="65.297"
	 viewBox="0 0 147.649 65.297" overflow="visible" enable-background="new 0 0 147.649 65.297" xml:space="preserve">
<rect x="0.05" y="0.05" fill="#FFFFFF" width="147.401" height="65.197"/>
<g>
	<g>
		<path d="M0.05,0.05v64.8h147.6V0.05H0.05z M147.451,51.152l-3.401,2.897h-21.6l-2.483,6.2H60.899l-2.85,3.267h-34.5l-3.875-2.989
			l-7.875-0.75l-2.425-2.253V25.125l0.3-2.348l9.375-9.375l89-1.053l3.6,0.303l3.601,1.797h28.8l3.401,3.453V51.152z"/>
	</g>
</g>
<line fill="none" stroke="#000000" stroke-width="2" x1="64.849" y1="32.848" x2="111.65" y2="32.848"/>
<circle cx="43.249" cy="32.848" r="3.6"/>
<circle cx="64.85" cy="18.447" r="3.6"/>
<circle cx="32.45" cy="47.247" r="3.6"/>
<circle cx="32.448" cy="32.847" r="3.6"/>
<circle cx="21.648" cy="32.847" r="3.6"/>
<circle cx="75.649" cy="25.646" r="3.6"/>
<circle cx="21.65" cy="47.247" r="3.6"/>
<circle cx="54.048" cy="32.848" r="3.6"/>
<circle cx="43.25" cy="47.247" r="3.6"/>
<circle cx="54.05" cy="47.247" r="3.6"/>
<circle cx="64.848" cy="32.848" r="3.6"/>
<circle cx="75.649" cy="40.048" r="3.6"/>
<circle cx="82.85" cy="32.848" r="3.601"/>
<line fill="none" stroke="#000000" stroke-width="2" x1="43.248" y1="32.848" x2="64.849" y2="32.848"/>
<circle cx="90.05" cy="40.048" r="3.6"/>
<circle cx="90.051" cy="25.648" r="3.601"/>
<circle cx="108.05" cy="18.447" r="4.252"/>
<circle cx="122.448" cy="32.847" r="4.252"/>
<circle cx="100.851" cy="25.648" r="4.252"/>
<circle cx="100.849" cy="40.047" r="4.252"/>
<circle cx="111.649" cy="32.849" r="3.6"/>
<circle cx="108.05" cy="47.249" r="3.6"/>
<circle cx="129.65" cy="47.248" r="4.252"/>
<circle cx="14.45" cy="40.047" r="3.6"/>
<circle cx="140.65" cy="20.929" r="4.252"/>
<circle cx="14.449" cy="25.648" r="3.6"/>
<circle cx="140.449" cy="47.248" r="4.252"/>
<polyline fill="none" stroke="#000000" stroke-width="2" points="100.849,40.048 93.649,47.247 22.498,46.994 "/>
<line fill="none" stroke="#000000" stroke-width="2" x1="100.849" y1="40.048" x2="140.251" y2="40.048"/>
<line fill="none" stroke="#000000" stroke-width="2" x1="140.45" y1="20.93" x2="140.45" y2="48.692"/>
<polyline fill="none" stroke="#000000" stroke-width="2" points="14.45,40.047 25.25,39.649 32.448,32.848 "/>
<g>
	<line fill="none" stroke="#FFFFFF" stroke-width="0.5" x1="4.4" y1="32.848" x2="4.4" y2="37.765"/>
	<line fill="none" stroke="#FFFFFF" stroke-width="0.5" x1="2.65" y1="33.348" x2="6.025" y2="33.348"/>
	<line fill="none" stroke="#FFFFFF" stroke-width="0.5" x1="3.15" y1="34.348" x2="5.608" y2="34.348"/>
	<line fill="none" stroke="#FFFFFF" stroke-width="0.5" x1="3.567" y1="35.473" x2="5.15" y2="35.473"/>
</g>
<polyline fill="none" stroke="#000000" stroke-width="2" points="21.65,25.648 57.649,25.647 64.851,18.447 "/>
<path fill="none" stroke="#000000" stroke-width="2" d="M21.65,32.848"/>
<g>
	<path fill="#FFFFFF" d="M3.98,7.25v-3.37h0.89l0.7,1.235C5.77,5.47,5.965,5.89,6.12,6.27h0.01c-0.045-0.445-0.06-0.9-0.06-1.41
		v-0.98h0.7v3.37h-0.8l-0.72-1.3c-0.2-0.365-0.425-0.795-0.585-1.19h-0.02C4.67,5.209,4.68,5.685,4.68,6.234V7.25H3.98z"/>
	<path fill="#FFFFFF" d="M7.78,4.484c-0.255,0-0.42-0.18-0.42-0.405c0-0.23,0.17-0.405,0.43-0.405c0.26,0,0.42,0.175,0.425,0.405
		c0,0.225-0.165,0.405-0.43,0.405H7.78z M7.405,7.25V4.805h0.76V7.25H7.405z"/>
	<path fill="#FFFFFF" d="M8.865,7.25V5.364H8.54v-0.56h0.325V4.709c0-0.295,0.09-0.62,0.305-0.82c0.195-0.18,0.455-0.245,0.68-0.245
		c0.165,0,0.295,0.025,0.4,0.05l-0.03,0.585c-0.065-0.02-0.145-0.035-0.245-0.035c-0.25,0-0.355,0.195-0.355,0.435v0.125h0.49v0.56
		H9.625V7.25H8.865z"/>
	<path fill="#FFFFFF" d="M11.404,4.14v0.665h0.545v0.56h-0.545v0.89c0,0.295,0.075,0.43,0.3,0.43c0.105,0,0.155-0.005,0.225-0.02
		l0.005,0.575c-0.095,0.035-0.28,0.065-0.49,0.065c-0.245,0-0.45-0.085-0.575-0.21c-0.14-0.145-0.21-0.38-0.21-0.725V5.364h-0.325
		v-0.56h0.325v-0.46L11.404,4.14z"/>
	<path fill="#FFFFFF" d="M12.99,4.805l0.365,1.2c0.04,0.145,0.09,0.325,0.12,0.455h0.015c0.035-0.13,0.075-0.315,0.11-0.455l0.3-1.2
		h0.815l-0.57,1.61c-0.35,0.97-0.585,1.355-0.86,1.6c-0.26,0.23-0.54,0.315-0.735,0.335l-0.16-0.64
		c0.095-0.02,0.215-0.065,0.33-0.13c0.115-0.06,0.245-0.185,0.315-0.305c0.025-0.04,0.04-0.075,0.04-0.11
		c0-0.025-0.005-0.065-0.03-0.125l-0.9-2.235H12.99z"/>
	<path fill="#FFFFFF" d="M15.035,5.584c0-0.305-0.01-0.56-0.02-0.78h0.645l0.03,0.335h0.015c0.105-0.16,0.325-0.39,0.74-0.39
		c0.32,0,0.565,0.165,0.67,0.42h0.01c0.095-0.13,0.2-0.23,0.32-0.3c0.135-0.075,0.285-0.12,0.465-0.12c0.47,0,0.825,0.33,0.825,1.06
		v1.44h-0.74V5.924c0-0.355-0.115-0.56-0.36-0.56c-0.18,0-0.3,0.12-0.355,0.265c-0.015,0.055-0.025,0.13-0.025,0.19v1.43h-0.74
		v-1.37c0-0.305-0.11-0.515-0.355-0.515c-0.195,0-0.31,0.15-0.355,0.27c-0.025,0.06-0.03,0.13-0.03,0.195v1.42h-0.74V5.584z"/>
	<path fill="#FFFFFF" d="M19.71,4.484c-0.255,0-0.42-0.18-0.42-0.405c0-0.23,0.17-0.405,0.43-0.405c0.26,0,0.42,0.175,0.425,0.405
		c0,0.225-0.165,0.405-0.43,0.405H19.71z M19.335,7.25V4.805h0.76V7.25H19.335z"/>
	<path fill="#FFFFFF" d="M21.554,4.14v0.665H22.1v0.56h-0.545v0.89c0,0.295,0.075,0.43,0.3,0.43c0.105,0,0.155-0.005,0.225-0.02
		l0.005,0.575c-0.095,0.035-0.28,0.065-0.49,0.065c-0.245,0-0.45-0.085-0.575-0.21c-0.14-0.145-0.21-0.38-0.21-0.725V5.364h-0.325
		v-0.56h0.325v-0.46L21.554,4.14z"/>
	<path fill="#FFFFFF" d="M23.389,4.14v0.665h0.545v0.56h-0.545v0.89c0,0.295,0.075,0.43,0.3,0.43c0.105,0,0.155-0.005,0.225-0.02
		l0.005,0.575c-0.095,0.035-0.28,0.065-0.49,0.065c-0.245,0-0.45-0.085-0.575-0.21c-0.14-0.145-0.21-0.38-0.21-0.725V5.364h-0.325
		v-0.56h0.325v-0.46L23.389,4.14z"/>
	<path fill="#FFFFFF" d="M24.935,6.265c0.025,0.32,0.335,0.47,0.69,0.47c0.26,0,0.47-0.035,0.675-0.105l0.1,0.515
		c-0.25,0.105-0.555,0.155-0.885,0.155c-0.83,0-1.305-0.48-1.305-1.25c0-0.62,0.39-1.305,1.235-1.305c0.79,0,1.09,0.615,1.09,1.22
		c0,0.13-0.015,0.245-0.025,0.305L24.935,6.265z M25.83,5.745c0-0.18-0.08-0.495-0.425-0.495c-0.325,0-0.455,0.295-0.475,0.495
		H25.83z"/>
	<path fill="#FFFFFF" d="M26.995,5.609c0-0.36-0.005-0.595-0.02-0.805h0.65l0.03,0.455h0.02c0.125-0.36,0.42-0.51,0.66-0.51
		c0.07,0,0.105,0.005,0.16,0.015v0.715c-0.065-0.01-0.125-0.02-0.21-0.02c-0.28,0-0.47,0.145-0.52,0.385
		c-0.01,0.05-0.015,0.105-0.015,0.17V7.25h-0.76L26.995,5.609z"/>
	<path fill="#FFFFFF" d="M30.464,4.805l0.33,1.135c0.06,0.205,0.1,0.4,0.14,0.595h0.015c0.04-0.2,0.08-0.385,0.135-0.595
		l0.315-1.135h0.8l-0.91,2.445h-0.76l-0.89-2.445H30.464z"/>
	<path fill="#FFFFFF" d="M32.665,7.305c-0.255,0-0.44-0.195-0.44-0.46c0-0.275,0.185-0.465,0.45-0.465
		c0.26,0,0.44,0.185,0.445,0.465c0,0.265-0.18,0.46-0.45,0.46H32.665z"/>
	<path fill="#FFFFFF" d="M34.654,7.305c-0.84,0-1.21-0.755-1.215-1.675c0-0.945,0.395-1.685,1.235-1.685
		c0.865,0,1.21,0.775,1.21,1.665c0,1-0.405,1.695-1.225,1.695H34.654z M34.665,6.729c0.295,0,0.455-0.37,0.455-1.11
		c0-0.72-0.155-1.1-0.46-1.1c-0.285,0-0.465,0.365-0.465,1.1c-0.005,0.75,0.175,1.11,0.465,1.11H34.665z"/>
	<path fill="#FFFFFF" d="M36.739,7.305c-0.255,0-0.44-0.195-0.44-0.46c0-0.275,0.185-0.465,0.45-0.465
		c0.26,0,0.44,0.185,0.445,0.465c0,0.265-0.18,0.46-0.45,0.46H36.739z"/>
	<path fill="#FFFFFF" d="M37.564,7.25V6.79l0.415-0.375c0.715-0.64,1.06-1.005,1.065-1.385c0-0.265-0.155-0.475-0.53-0.475
		c-0.28,0-0.525,0.14-0.695,0.265l-0.215-0.54c0.24-0.185,0.625-0.335,1.06-0.335c0.74,0,1.14,0.43,1.14,1.02
		c0,0.545-0.39,0.98-0.865,1.4l-0.3,0.25v0.01h1.23V7.25H37.564z"/>
	<path fill="#FFFFFF" d="M41.305,4.674h-0.01l-0.62,0.295l-0.125-0.57L41.415,4h0.625v3.25h-0.735V4.674z"/>
	<path fill="#FFFFFF" d="M46.409,7.625v0.25h-2.5v-0.25H46.409z"/>
	<path fill="#FFFFFF" d="M50.219,7.16c-0.135,0.065-0.455,0.145-0.86,0.145c-1.165,0-1.765-0.73-1.765-1.695
		c0-1.15,0.82-1.785,1.84-1.785c0.395,0,0.695,0.08,0.83,0.15l-0.16,0.6c-0.15-0.065-0.365-0.125-0.64-0.125
		c-0.6,0-1.07,0.365-1.07,1.12c0,0.675,0.4,1.1,1.075,1.1c0.235,0,0.485-0.045,0.64-0.11L50.219,7.16z"/>
	<path fill="#FFFFFF" d="M53.039,7.16c-0.135,0.065-0.455,0.145-0.86,0.145c-1.165,0-1.765-0.73-1.765-1.695
		c0-1.15,0.82-1.785,1.84-1.785c0.395,0,0.695,0.08,0.83,0.15l-0.16,0.6c-0.15-0.065-0.365-0.125-0.64-0.125
		c-0.6,0-1.07,0.365-1.07,1.12c0,0.675,0.4,1.1,1.075,1.1c0.235,0,0.485-0.045,0.64-0.11L53.039,7.16z"/>
	<path fill="#FFFFFF" d="M54.674,5.685v0.505h-1.31V5.685H54.674z"/>
	<path fill="#FFFFFF" d="M55.154,3.93c0.2-0.04,0.6-0.075,0.985-0.075c0.465,0,0.75,0.045,0.995,0.19
		c0.235,0.125,0.4,0.355,0.4,0.665c0,0.295-0.175,0.57-0.55,0.715v0.01c0.385,0.1,0.67,0.395,0.67,0.83c0,0.31-0.14,0.55-0.35,0.715
		c-0.245,0.195-0.655,0.305-1.325,0.305c-0.375,0-0.655-0.025-0.825-0.05V3.93z M55.909,5.214h0.25c0.405,0,0.615-0.165,0.615-0.415
		c0-0.255-0.195-0.39-0.54-0.39c-0.17,0-0.265,0.01-0.325,0.025V5.214z M55.909,6.709c0.075,0.015,0.165,0.015,0.295,0.015
		c0.345,0,0.65-0.135,0.65-0.49c0-0.34-0.305-0.475-0.685-0.475h-0.26V6.709z"/>
	<path fill="#FFFFFF" d="M58.954,7.25V5.87l-1.065-1.99h0.875l0.34,0.81c0.105,0.245,0.18,0.425,0.26,0.645h0.01
		c0.075-0.21,0.155-0.405,0.255-0.645l0.34-0.81h0.855l-1.11,1.965V7.25H58.954z"/>
	<path fill="#FFFFFF" d="M62.319,5.685v0.505h-1.31V5.685H62.319z"/>
	<path fill="#FFFFFF" d="M62.824,6.47c0.2,0.105,0.52,0.21,0.845,0.21c0.35,0,0.535-0.145,0.535-0.37c0-0.205-0.16-0.33-0.565-0.47
		c-0.56-0.2-0.93-0.51-0.93-1.005c0-0.575,0.485-1.01,1.275-1.01c0.385,0,0.66,0.075,0.86,0.17l-0.17,0.61
		c-0.13-0.065-0.375-0.16-0.7-0.16c-0.33,0-0.49,0.155-0.49,0.325c0,0.215,0.185,0.31,0.625,0.48c0.595,0.22,0.87,0.53,0.87,1.01
		c0,0.565-0.43,1.045-1.355,1.045c-0.385,0-0.765-0.105-0.955-0.21L62.824,6.47z"/>
	<path fill="#FFFFFF" d="M66.279,6.384L66.044,7.25h-0.79l1.03-3.37h0.995l1.05,3.37h-0.82l-0.26-0.865H66.279z M67.134,5.814
		L66.924,5.1c-0.055-0.2-0.115-0.455-0.165-0.65h-0.015c-0.045,0.2-0.1,0.455-0.15,0.65l-0.205,0.715H67.134z"/>
	<path fill="#FFFFFF" d="M71.959,7.625v0.25h-2.5v-0.25H71.959z"/>
	<path fill="#FFFFFF" d="M73.799,4.805l0.2,1.005c0.045,0.25,0.095,0.52,0.135,0.8h0.016c0.045-0.275,0.12-0.555,0.175-0.795
		l0.26-1.01h0.601l0.244,0.975c0.07,0.28,0.135,0.55,0.18,0.83h0.01c0.035-0.275,0.086-0.555,0.146-0.835l0.203-0.97h0.746
		l-0.75,2.445h-0.711l-0.229-0.855c-0.065-0.24-0.11-0.46-0.16-0.765h-0.01c-0.045,0.305-0.096,0.535-0.155,0.76l-0.245,0.86h-0.715
		l-0.715-2.445H73.799z"/>
	<path fill="#FFFFFF" d="M77.595,4.805l0.199,1.005c0.045,0.25,0.096,0.52,0.135,0.8h0.016c0.045-0.275,0.119-0.555,0.176-0.795
		l0.26-1.01h0.6l0.244,0.975c0.07,0.28,0.135,0.55,0.18,0.83h0.012c0.033-0.275,0.084-0.555,0.145-0.835l0.205-0.97h0.744
		l-0.75,2.445H79.05l-0.23-0.855c-0.064-0.24-0.109-0.46-0.16-0.765h-0.01c-0.045,0.305-0.096,0.535-0.154,0.76l-0.246,0.86h-0.715
		l-0.715-2.445H77.595z"/>
	<path fill="#FFFFFF" d="M81.39,4.805l0.199,1.005c0.045,0.25,0.096,0.52,0.135,0.8h0.016c0.045-0.275,0.119-0.555,0.176-0.795
		l0.26-1.01h0.6l0.244,0.975c0.07,0.28,0.135,0.55,0.18,0.83h0.012c0.033-0.275,0.084-0.555,0.145-0.835l0.205-0.97h0.744
		l-0.75,2.445h-0.709l-0.23-0.855c-0.064-0.24-0.109-0.46-0.16-0.765h-0.01c-0.045,0.305-0.096,0.535-0.154,0.76l-0.246,0.86h-0.715
		l-0.715-2.445H81.39z"/>
	<path fill="#FFFFFF" d="M84.804,7.305c-0.256,0-0.439-0.195-0.439-0.46c0-0.275,0.184-0.465,0.449-0.465
		c0.26,0,0.439,0.185,0.445,0.465c0,0.265-0.18,0.46-0.449,0.46H84.804z"/>
	<path fill="#FFFFFF" d="M86.843,7.305c-0.715,0-1.264-0.47-1.264-1.26s0.52-1.295,1.309-1.295c0.746,0,1.246,0.515,1.246,1.255
		c0,0.89-0.635,1.3-1.285,1.3H86.843z M86.858,6.759c0.301,0,0.484-0.295,0.484-0.735c0-0.36-0.139-0.73-0.484-0.73
		c-0.359,0-0.5,0.37-0.5,0.735c0,0.415,0.176,0.73,0.496,0.73H86.858z"/>
	<path fill="#FFFFFF" d="M88.603,5.625c0-0.32-0.01-0.59-0.02-0.82h0.66l0.035,0.34h0.01c0.18-0.255,0.461-0.395,0.814-0.395
		c0.535,0,1.016,0.465,1.016,1.245c0,0.89-0.564,1.31-1.109,1.31c-0.295,0-0.525-0.12-0.635-0.28h-0.01v1.215h-0.762V5.625z
		 M89.364,6.2c0,0.06,0.004,0.11,0.014,0.16c0.051,0.205,0.225,0.36,0.445,0.36c0.33,0,0.525-0.275,0.525-0.69
		c0-0.39-0.176-0.685-0.516-0.685c-0.215,0-0.404,0.16-0.455,0.385c-0.01,0.04-0.014,0.09-0.014,0.135V6.2z"/>
	<path fill="#FFFFFF" d="M92.192,6.265c0.025,0.32,0.336,0.47,0.691,0.47c0.26,0,0.469-0.035,0.674-0.105l0.102,0.515
		c-0.25,0.105-0.557,0.155-0.887,0.155c-0.83,0-1.305-0.48-1.305-1.25c0-0.62,0.391-1.305,1.236-1.305c0.789,0,1.09,0.615,1.09,1.22
		c0,0.13-0.016,0.245-0.025,0.305L92.192,6.265z M93.089,5.745c0-0.18-0.08-0.495-0.426-0.495c-0.324,0-0.455,0.295-0.475,0.495
		H93.089z"/>
	<path fill="#FFFFFF" d="M94.249,5.584c0-0.305-0.01-0.56-0.02-0.78h0.66l0.035,0.34h0.014c0.1-0.16,0.346-0.395,0.756-0.395
		c0.5,0,0.875,0.335,0.875,1.055V7.25h-0.76V5.895c0-0.315-0.111-0.53-0.385-0.53c-0.211,0-0.336,0.145-0.391,0.285
		c-0.02,0.05-0.025,0.12-0.025,0.19v1.41h-0.76V5.584z"/>
	<path fill="#FFFFFF" d="M97.999,4.14v0.665h0.545v0.56h-0.545v0.89c0,0.295,0.074,0.43,0.299,0.43c0.105,0,0.156-0.005,0.225-0.02
		l0.006,0.575c-0.096,0.035-0.279,0.065-0.49,0.065c-0.244,0-0.449-0.085-0.574-0.21c-0.141-0.145-0.211-0.38-0.211-0.725V5.364
		h-0.324v-0.56h0.324v-0.46L97.999,4.14z"/>
	<path fill="#FFFFFF" d="M98.983,3.7h0.76v1.4h0.01c0.08-0.11,0.18-0.195,0.301-0.255c0.115-0.06,0.254-0.095,0.395-0.095
		c0.484,0,0.855,0.335,0.855,1.075V7.25h-0.76V5.904c0-0.32-0.111-0.54-0.396-0.54c-0.199,0-0.324,0.13-0.379,0.27
		c-0.02,0.045-0.025,0.11-0.025,0.165v1.45h-0.76V3.7z"/>
	<path fill="#FFFFFF" d="M102.288,4.484c-0.254,0-0.42-0.18-0.42-0.405c0-0.23,0.17-0.405,0.432-0.405
		c0.26,0,0.42,0.175,0.424,0.405c0,0.225-0.164,0.405-0.43,0.405H102.288z M101.913,7.25V4.805h0.762V7.25H101.913z"/>
	<path fill="#FFFFFF" d="M103.282,5.584c0-0.305-0.01-0.56-0.02-0.78h0.66l0.035,0.34h0.016c0.1-0.16,0.344-0.395,0.754-0.395
		c0.5,0,0.875,0.335,0.875,1.055V7.25h-0.76V5.895c0-0.315-0.109-0.53-0.385-0.53c-0.211,0-0.336,0.145-0.391,0.285
		c-0.02,0.05-0.023,0.12-0.023,0.19v1.41h-0.762V5.584z"/>
	<path fill="#FFFFFF" d="M108.528,6.895c0,0.47-0.094,0.855-0.375,1.1c-0.264,0.23-0.629,0.3-0.99,0.3
		c-0.324,0-0.66-0.065-0.879-0.185l0.15-0.58c0.154,0.09,0.42,0.185,0.709,0.185c0.359,0,0.635-0.19,0.635-0.645V6.915h-0.01
		c-0.145,0.2-0.379,0.315-0.66,0.315c-0.605,0-1.035-0.49-1.035-1.19c0-0.79,0.506-1.29,1.111-1.29c0.334,0,0.545,0.145,0.67,0.345
		h0.01l0.025-0.29h0.658c-0.01,0.16-0.02,0.365-0.02,0.73V6.895z M107.769,5.799c0-0.045-0.004-0.095-0.016-0.14
		c-0.055-0.2-0.199-0.335-0.41-0.335c-0.279,0-0.5,0.25-0.5,0.695c0,0.365,0.182,0.65,0.496,0.65c0.199,0,0.355-0.13,0.404-0.305
		c0.021-0.06,0.025-0.14,0.025-0.205V5.799z"/>
	<path fill="#FFFFFF" d="M109.378,7.305c-0.256,0-0.439-0.195-0.439-0.46c0-0.275,0.184-0.465,0.449-0.465
		c0.26,0,0.439,0.185,0.445,0.465c0,0.265-0.18,0.46-0.449,0.46H109.378z"/>
	<path fill="#FFFFFF" d="M111.419,7.305c-0.715,0-1.266-0.47-1.266-1.26s0.52-1.295,1.311-1.295c0.744,0,1.244,0.515,1.244,1.255
		c0,0.89-0.635,1.3-1.285,1.3H111.419z M111.435,6.759c0.299,0,0.484-0.295,0.484-0.735c0-0.36-0.141-0.73-0.484-0.73
		c-0.361,0-0.5,0.37-0.5,0.735c0,0.415,0.174,0.73,0.494,0.73H111.435z"/>
	<path fill="#FFFFFF" d="M113.183,5.609c0-0.36-0.004-0.595-0.02-0.805h0.65l0.029,0.455h0.021c0.125-0.36,0.42-0.51,0.66-0.51
		c0.068,0,0.104,0.005,0.158,0.015v0.715c-0.064-0.01-0.125-0.02-0.209-0.02c-0.279,0-0.471,0.145-0.52,0.385
		c-0.01,0.05-0.016,0.105-0.016,0.17V7.25h-0.76L113.183,5.609z"/>
	<path fill="#FFFFFF" d="M117.353,6.895c0,0.47-0.094,0.855-0.375,1.1c-0.264,0.23-0.629,0.3-0.99,0.3
		c-0.324,0-0.66-0.065-0.879-0.185l0.15-0.58c0.154,0.09,0.42,0.185,0.709,0.185c0.359,0,0.635-0.19,0.635-0.645V6.915h-0.01
		c-0.145,0.2-0.379,0.315-0.66,0.315c-0.605,0-1.035-0.49-1.035-1.19c0-0.79,0.506-1.29,1.111-1.29c0.334,0,0.545,0.145,0.67,0.345
		h0.01l0.025-0.29h0.658c-0.01,0.16-0.02,0.365-0.02,0.73V6.895z M116.593,5.799c0-0.045-0.004-0.095-0.016-0.14
		c-0.055-0.2-0.199-0.335-0.41-0.335c-0.279,0-0.5,0.25-0.5,0.695c0,0.365,0.182,0.65,0.496,0.65c0.199,0,0.355-0.13,0.404-0.305
		c0.021-0.06,0.025-0.14,0.025-0.205V5.799z"/>
	<path fill="#FFFFFF" d="M117.739,7.45l1.07-3.625h0.504l-1.07,3.625H117.739z"/>
	<path fill="#FFFFFF" d="M119.618,5.584c0-0.305-0.01-0.56-0.02-0.78h0.66l0.035,0.34h0.014c0.1-0.16,0.346-0.395,0.756-0.395
		c0.5,0,0.875,0.335,0.875,1.055V7.25h-0.76V5.895c0-0.315-0.111-0.53-0.385-0.53c-0.211,0-0.336,0.145-0.391,0.285
		c-0.02,0.05-0.025,0.12-0.025,0.19v1.41h-0.76V5.584z"/>
	<path fill="#FFFFFF" d="M122.923,4.484c-0.254,0-0.42-0.18-0.42-0.405c0-0.23,0.17-0.405,0.432-0.405
		c0.26,0,0.42,0.175,0.424,0.405c0,0.225-0.164,0.405-0.43,0.405H122.923z M122.548,7.25V4.805h0.762V7.25H122.548z"/>
	<path fill="#FFFFFF" d="M124.007,7.25V5.364h-0.324v-0.56h0.324V4.709c0-0.295,0.092-0.62,0.307-0.82
		c0.193-0.18,0.455-0.245,0.68-0.245c0.164,0,0.295,0.025,0.4,0.05l-0.031,0.585c-0.064-0.02-0.145-0.035-0.244-0.035
		c-0.25,0-0.355,0.195-0.355,0.435v0.125h0.49v0.56h-0.484V7.25H124.007z"/>
	<path fill="#FFFFFF" d="M126.548,4.14v0.665h0.545v0.56h-0.545v0.89c0,0.295,0.076,0.43,0.301,0.43c0.104,0,0.154-0.005,0.225-0.02
		l0.004,0.575c-0.094,0.035-0.279,0.065-0.488,0.065c-0.246,0-0.451-0.085-0.576-0.21c-0.139-0.145-0.209-0.38-0.209-0.725V5.364
		h-0.326v-0.56h0.326v-0.46L126.548,4.14z"/>
	<path fill="#FFFFFF" d="M128.134,4.805l0.365,1.2c0.039,0.145,0.09,0.325,0.119,0.455h0.016c0.035-0.13,0.074-0.315,0.109-0.455
		l0.301-1.2h0.814l-0.57,1.61c-0.35,0.97-0.584,1.355-0.859,1.6c-0.26,0.23-0.541,0.315-0.736,0.335l-0.158-0.64
		c0.094-0.02,0.215-0.065,0.33-0.13c0.113-0.06,0.244-0.185,0.314-0.305c0.025-0.04,0.039-0.075,0.039-0.11
		c0-0.025-0.004-0.065-0.029-0.125l-0.9-2.235H128.134z"/>
	<path fill="#FFFFFF" d="M130.177,5.584c0-0.305-0.01-0.56-0.02-0.78h0.645l0.031,0.335h0.014c0.105-0.16,0.326-0.39,0.74-0.39
		c0.32,0,0.566,0.165,0.67,0.42h0.01c0.096-0.13,0.201-0.23,0.32-0.3c0.135-0.075,0.285-0.12,0.465-0.12
		c0.471,0,0.826,0.33,0.826,1.06v1.44h-0.74V5.924c0-0.355-0.115-0.56-0.359-0.56c-0.182,0-0.301,0.12-0.355,0.265
		c-0.016,0.055-0.025,0.13-0.025,0.19v1.43h-0.74v-1.37c0-0.305-0.109-0.515-0.355-0.515c-0.193,0-0.309,0.15-0.354,0.27
		c-0.025,0.06-0.031,0.13-0.031,0.195v1.42h-0.74V5.584z"/>
	<path fill="#FFFFFF" d="M134.853,4.484c-0.254,0-0.42-0.18-0.42-0.405c0-0.23,0.17-0.405,0.432-0.405
		c0.26,0,0.42,0.175,0.424,0.405c0,0.225-0.164,0.405-0.43,0.405H134.853z M134.478,7.25V4.805h0.762V7.25H134.478z"/>
	<path fill="#FFFFFF" d="M136.698,4.14v0.665h0.545v0.56h-0.545v0.89c0,0.295,0.074,0.43,0.299,0.43c0.105,0,0.156-0.005,0.225-0.02
		l0.006,0.575c-0.096,0.035-0.279,0.065-0.49,0.065c-0.244,0-0.449-0.085-0.574-0.21c-0.141-0.145-0.211-0.38-0.211-0.725V5.364
		h-0.324v-0.56h0.324v-0.46L136.698,4.14z"/>
	<path fill="#FFFFFF" d="M138.532,4.14v0.665h0.545v0.56h-0.545v0.89c0,0.295,0.076,0.43,0.301,0.43c0.104,0,0.154-0.005,0.225-0.02
		l0.004,0.575c-0.094,0.035-0.279,0.065-0.488,0.065c-0.246,0-0.451-0.085-0.576-0.21c-0.139-0.145-0.209-0.38-0.209-0.725V5.364
		h-0.326v-0.56h0.326v-0.46L138.532,4.14z"/>
	<path fill="#FFFFFF" d="M140.077,6.265c0.025,0.32,0.336,0.47,0.691,0.47c0.26,0,0.469-0.035,0.674-0.105l0.102,0.515
		c-0.25,0.105-0.557,0.155-0.887,0.155c-0.83,0-1.305-0.48-1.305-1.25c0-0.62,0.391-1.305,1.236-1.305c0.789,0,1.09,0.615,1.09,1.22
		c0,0.13-0.016,0.245-0.025,0.305L140.077,6.265z M140.974,5.745c0-0.18-0.08-0.495-0.426-0.495c-0.324,0-0.455,0.295-0.475,0.495
		H140.974z"/>
	<path fill="#FFFFFF" d="M142.138,5.609c0-0.36-0.006-0.595-0.02-0.805h0.65l0.029,0.455h0.02c0.125-0.36,0.42-0.51,0.66-0.51
		c0.07,0,0.105,0.005,0.16,0.015v0.715c-0.064-0.01-0.125-0.02-0.211-0.02c-0.279,0-0.469,0.145-0.52,0.385
		c-0.01,0.05-0.014,0.105-0.014,0.17V7.25h-0.762L142.138,5.609z"/>
</g>
<g>
	<path fill="#FFFFFF" d="M5.853,23.82c0.015-0.1,0.01-0.18,0-0.33c-0.01-0.235-0.08-0.47-0.2-0.645
		c-0.14-0.215-0.355-0.355-0.6-0.41l-0.005,0.01c0.15,0.15,0.235,0.36,0.235,0.66c0,0.55-0.38,1.01-1.015,1.01
		c-0.635,0-1.17-0.51-1.17-1.225c0-0.835,0.64-1.23,1.4-1.23c0.68,0,1.17,0.215,1.495,0.565c0.285,0.31,0.435,0.74,0.455,1.25
		c0.01,0.125,0.005,0.255,0,0.345H5.853z M3.652,22.915c0,0.255,0.23,0.445,0.57,0.445c0.28,0,0.52-0.155,0.52-0.46
		c0-0.215-0.095-0.355-0.21-0.43c-0.05-0.025-0.1-0.035-0.195-0.035c-0.345-0.005-0.685,0.13-0.685,0.475V22.915z"/>
	<path fill="#FFFFFF" d="M6.402,20.365l-3.37,1.08V20.61l1.425-0.41c0.405-0.115,0.785-0.22,1.205-0.3v-0.015
		c-0.405-0.085-0.805-0.19-1.19-0.305l-1.44-0.43v-0.81l3.37,1.135V20.365z"/>
</g>
<g>
	<path fill="#FFFFFF" d="M5.888,51.16c0.08,0.235,0.19,0.681,0.19,1.125c0,0.615-0.155,1.061-0.45,1.37
		c-0.295,0.305-0.735,0.476-1.23,0.476c-1.12-0.006-1.76-0.82-1.76-1.926c0-0.435,0.085-0.77,0.16-0.935l0.615,0.16
		c-0.085,0.185-0.145,0.41-0.145,0.779c0,0.636,0.36,1.12,1.09,1.12c0.7,0,1.105-0.439,1.105-1.064c0-0.17-0.02-0.311-0.045-0.37
		h-0.71v0.52H4.112V51.16H5.888z"/>
	<path fill="#FFFFFF" d="M6.042,50.565h-3.37v-0.891l1.235-0.699c0.355-0.2,0.775-0.396,1.155-0.551v-0.01
		c-0.445,0.045-0.9,0.061-1.41,0.061h-0.98v-0.7h3.37v0.8l-1.3,0.72c-0.365,0.2-0.795,0.426-1.19,0.585V49.9
		c0.45-0.025,0.925-0.035,1.475-0.035h1.015V50.565z"/>
	<path fill="#FFFFFF" d="M2.723,47.115c-0.05-0.279-0.075-0.645-0.075-1.024c0-0.646,0.105-1.065,0.35-1.385
		c0.26-0.351,0.68-0.57,1.28-0.57c0.645,0,1.09,0.234,1.365,0.555c0.295,0.355,0.435,0.9,0.435,1.561c0,0.395-0.025,0.68-0.05,0.864
		H2.723z M5.467,46.355c0.015-0.064,0.015-0.175,0.015-0.265c0.005-0.695-0.375-1.15-1.18-1.15c-0.725,0-1.07,0.41-1.07,1.07
		c0,0.165,0.015,0.28,0.03,0.345H5.467z"/>
</g>
<circle cx="129.879" cy="20.93" r="4.252"/>
<line fill="none" stroke="#000000" stroke-width="2" x1="14.45" y1="25.648" x2="21.65" y2="25.647"/>
<circle cx="14.449" cy="54.447" r="3.6"/>
<path fill="none" stroke="#000000" stroke-width="2" d="M21.65,25.648"/>
<g>
	<path fill="#FFFFFF" d="M122.785,55.28h0.761v2.729h1.34v0.64h-2.101V55.28z"/>
	<path fill="#FFFFFF" d="M126.101,55.28v3.369h-0.761V55.28H126.101z"/>
	<path fill="#FFFFFF" d="M126.761,58.649V55.28h0.89l0.7,1.234c0.199,0.355,0.395,0.775,0.55,1.155h0.01
		c-0.045-0.444-0.06-0.899-0.06-1.41V55.28h0.699v3.369h-0.8l-0.72-1.299c-0.2-0.365-0.426-0.796-0.585-1.191h-0.021
		c0.025,0.451,0.035,0.926,0.035,1.476v1.015H126.761z"/>
	<path fill="#FFFFFF" d="M132.215,57.226h-1.239v0.799h1.385v0.625h-2.146V55.28h2.075v0.625h-1.314v0.699h1.239V57.226z"/>
</g>
<rect x="0.05" y="0.05" fill="none" stroke="#000000" stroke-width="0.1" width="147.401" height="65.197"/>
<polyline fill="none" stroke="#000000" stroke-width="2" points="32.448,32.848 39.649,39.649 84.782,39.578 90.05,40.048 "/>
<line fill="none" stroke="#000000" stroke-width="2" x1="90.05" y1="25.647" x2="100.849" y2="25.647"/>
<polyline fill="none" stroke="#000000" stroke-width="2" points="76.251,25.578 87.05,25.578 90.05,25.647 "/>
<path fill="none" stroke="#000000" stroke-width="2" d="M21.65,47.247"/>
<path fill="none" stroke="#000000" stroke-width="2" d="M14.45,54.447"/>
<polyline fill="none" stroke="#000000" stroke-width="2" points="100.849,25.647 115.249,25.647 122.45,32.848 "/>
<line fill="none" stroke="#000000" stroke-width="2" x1="64.851" y1="18.447" x2="108.05" y2="18.447"/>
<circle cx="115.251" cy="40.048" r="3.6"/>
<circle cx="115.25" cy="54.448" r="3.6"/>
<line fill="none" stroke="#000000" stroke-width="2" x1="108.05" y1="47.247" x2="115.25" y2="54.447"/>
<polyline fill="none" stroke="#000000" stroke-width="2" points="115.25,54.447 122.45,47.247 125.142,47.247 129.451,47.247 "/>
<circle cx="100.851" cy="54.447" r="3.6"/>
<line fill="none" stroke="#000000" stroke-width="2" x1="100.85" y1="54.447" x2="108.05" y2="47.247"/>
<circle cx="86.452" cy="54.448" r="3.6"/>
<circle cx="75.651" cy="54.448" r="3.6"/>
<line fill="none" stroke="#000000" stroke-width="2" x1="75.649" y1="54.447" x2="86.449" y2="54.447"/>
<circle cx="61.252" cy="54.448" r="3.6"/>
<circle cx="50.452" cy="58.049" r="3.6"/>
<circle cx="39.649" cy="58.048" r="3.6"/>
<line fill="none" stroke="#000000" stroke-width="2" x1="14.45" y1="54.447" x2="21.65" y2="47.247"/>
<polyline fill="none" stroke="#000000" stroke-width="2" points="39.649,58.048 57.649,58.048 61.25,54.447 "/>
<circle cx="25.25" cy="57.65" r="3.6"/>
<circle cx="21.65" cy="18.051" r="3.6"/>
<line fill="none" stroke="#000000" stroke-width="2" x1="28.85" y1="25.25" x2="21.65" y2="18.05"/>
<circle cx="36.05" cy="18.049" r="3.6"/>
<circle cx="50.45" cy="18.05" r="3.6"/>
<line fill="none" stroke="#000000" stroke-width="2" x1="36.05" y1="18.05" x2="50.45" y2="18.05"/>
<g>
	<path d="M33.16,59.069c-0.405,0.016-0.89,0.031-1.385,0.031v0.01c0.43,0.109,0.91,0.25,1.305,0.38l1.315,0.409v0.596l-1.3,0.359
		c-0.4,0.11-0.875,0.221-1.32,0.306v0.01c0.455,0.015,0.975,0.035,1.395,0.056l1.28,0.064v0.705l-3.37-0.215v-1.016l1.13-0.33
		c0.385-0.109,0.805-0.209,1.2-0.285v-0.02c-0.39-0.09-0.83-0.205-1.21-0.32l-1.12-0.354v-1l3.37-0.181v0.74L33.16,59.069z"/>
	<path d="M31.08,56.925h3.37v0.76h-3.37V56.925z"/>
	<path d="M34.36,53.796c0.065,0.135,0.145,0.454,0.145,0.859c0,1.165-0.73,1.766-1.695,1.766c-1.15,0-1.785-0.82-1.785-1.841
		c0-0.396,0.08-0.694,0.15-0.83l0.6,0.16c-0.065,0.149-0.125,0.365-0.125,0.64c0,0.601,0.365,1.07,1.12,1.07
		c0.675,0,1.1-0.4,1.1-1.074c0-0.236-0.045-0.486-0.11-0.641L34.36,53.796z"/>
</g>
<line fill="none" stroke="#000000" stroke-width="2" x1="21.65" y1="32.848" x2="28.85" y2="25.25"/>
<polyline fill="none" stroke="#000000" stroke-width="2" points="25.25,57.649 32.45,50.051 32.45,46.85 "/>
</svg>
