<?xml version="1.0" encoding="utf-8"?>
<!-- Generator: Adobe Illustrator 12.0.0, SVG Export Plug-In . SVG Version: 6.00 Build 51448)  -->
<!DOCTYPE svg PUBLIC "-//W3C//DTD SVG 1.0//EN" "http://www.w3.org/TR/2001/REC-SVG-20010904/DTD/svg10.dtd" [
	<!ENTITY ns_svg "http://www.w3.org/2000/svg">
	<!ENTITY ns_xlink "http://www.w3.org/1999/xlink">
]>
<svg  version="1.0" xmlns="&ns_svg;" xmlns:xlink="&ns_xlink;" width="357.54" height="243.948" viewBox="0 0 357.54 243.948"
	 overflow="visible" enable-background="new 0 0 357.54 243.948" xml:space="preserve">
<g id="Layer_1">
	<circle cx="94.46" cy="83.247" r="3.6"/>
	<polyline fill="none" stroke="#000000" stroke-width="2" points="44.059,76.047 51.259,83.248 54.859,83.247 	"/>
	<circle cx="62.059" cy="112.046" r="3.6"/>
	<line fill="none" stroke="#000000" stroke-width="2" x1="54.859" y1="104.845" x2="62.059" y2="112.046"/>
	<circle cx="76.406" cy="111.846" r="3.6"/>
	<circle cx="85.46" cy="112.046" r="3.6"/>
	<line fill="none" stroke="#000000" stroke-width="2" x1="76.205" y1="112.046" x2="85.459" y2="112.045"/>
	<line fill="none" stroke="#000000" stroke-width="2" x1="94.458" y1="97.648" x2="137.66" y2="97.648"/>
	<circle cx="72.857" cy="97.648" r="3.6"/>
	<circle cx="94.459" cy="112.049" r="3.6"/>
	<circle cx="62.059" cy="83.248" r="3.6"/>
	<circle cx="62.058" cy="97.649" r="3.601"/>
	<circle cx="105.26" cy="104.848" r="3.6"/>
	<circle cx="83.657" cy="97.648" r="3.6"/>
	<circle cx="72.859" cy="83.248" r="3.6"/>
	<circle cx="83.659" cy="83.248" r="3.6"/>
	<circle cx="94.457" cy="97.648" r="3.6"/>
	<circle cx="105.26" cy="90.447" r="3.6"/>
	<circle cx="112.459" cy="97.648" r="3.602"/>
	<line fill="none" stroke="#000000" stroke-width="2" x1="72.857" y1="97.648" x2="94.457" y2="97.648"/>
	<circle cx="119.66" cy="90.447" r="3.6"/>
	<circle cx="119.66" cy="104.847" r="3.601"/>
	<circle cx="116.711" cy="119.899" r="4.251"/>
	<circle cx="137.008" cy="119.9" r="4.252"/>
	<circle cx="130.461" cy="104.847" r="4.252"/>
	<circle cx="130.459" cy="90.448" r="4.252"/>
	<circle cx="141.262" cy="97.648" r="3.6"/>
	<circle cx="141.26" cy="83.248" r="3.6"/>
	<circle cx="171.989" cy="90.832" r="4.251"/>
	<circle cx="44.059" cy="90.448" r="3.601"/>
	<circle cx="171.986" cy="111.955" r="4.252"/>
	<circle cx="44.058" cy="104.847" r="3.6"/>
	<circle cx="171.955" cy="83.58" r="4.251"/>
	<polyline fill="none" stroke="#000000" stroke-width="2" points="130.459,90.447 123.26,83.248 51.259,83.248 	"/>
	<path fill="none" stroke="#000000" stroke-width="2" d="M130.459,90.447"/>
	<line fill="none" stroke="#000000" stroke-width="2" x1="173.659" y1="83.247" x2="170.06" y2="72.447"/>
	<polyline fill="none" stroke="#000000" stroke-width="2" points="44.059,90.448 54.859,90.448 62.057,97.648 	"/>
	<g>
		<line fill="none" stroke="#000000" stroke-width="0.75" x1="38.215" y1="98.648" x2="38.215" y2="92.731"/>
		<line fill="none" stroke="#000000" stroke-width="0.75" x1="36.109" y1="98.046" x2="40.171" y2="98.046"/>
		<line fill="none" stroke="#000000" stroke-width="0.75" x1="36.711" y1="96.843" x2="39.67" y2="96.843"/>
		<line fill="none" stroke="#000000" stroke-width="0.75" x1="37.213" y1="95.49" x2="39.118" y2="95.49"/>
	</g>
	<polyline fill="none" stroke="#000000" stroke-width="2" points="51.259,104.847 87.26,104.847 94.46,112.048 	"/>
	<path fill="none" stroke="#000000" stroke-width="2" d="M51.259,97.648"/>
	<circle cx="172.218" cy="104.993" r="4.253"/>
	<line fill="none" stroke="#000000" stroke-width="2" x1="44.059" y1="104.847" x2="51.259" y2="104.847"/>
	<circle cx="44.058" cy="76.048" r="3.6"/>
	<path fill="none" stroke="#000000" stroke-width="2" d="M51.259,104.847"/>
	<path fill="none" stroke="#000000" stroke-width="2" d="M119.66,90.447"/>
	<polyline fill="none" stroke="#000000" stroke-width="2" points="62.057,97.648 69.259,90.448 119.66,90.447 	"/>
	<line fill="none" stroke="#000000" stroke-width="2" x1="119.66" y1="104.847" x2="130.459" y2="104.847"/>
	<polyline fill="none" stroke="#000000" stroke-width="2" points="105.861,104.917 116.66,104.917 119.66,104.847 	"/>
	<path fill="none" stroke="#000000" stroke-width="2" d="M51.259,83.248"/>
	<path fill="none" stroke="#000000" stroke-width="2" d="M44.059,76.047"/>
	<polyline fill="none" stroke="#000000" stroke-width="2" points="130.459,104.847 137.66,112.048 137.66,119.249 	"/>
	<path fill="none" stroke="#000000" stroke-width="2" d="M144.561,83.248"/>
	<path fill="none" stroke="#000000" stroke-width="2" d="M157.509,120.418"/>
	<line fill="none" stroke="#000000" stroke-width="2" x1="170.06" y1="122.846" x2="173.659" y2="112.046"/>
	<circle cx="170.058" cy="72.447" r="3.601"/>
	<circle cx="170.059" cy="122.847" r="3.6"/>
	<circle cx="155.659" cy="72.447" r="3.601"/>
	<circle cx="155.657" cy="122.847" r="3.6"/>
	<circle cx="157.826" cy="97.718" r="4.251"/>
	<polyline fill="none" stroke="#000000" stroke-width="2" points="155.659,122.846 165.192,115.646 165.192,79.646 155.659,72.447 	
		"/>
	<circle cx="158.036" cy="111.975" r="4.252"/>
	<circle cx="157.617" cy="83.748" r="4.252"/>
	<g>
		<path d="M38.334,119.945v1.167c0,0.633-0.011,1.18-0.04,1.697h0.023c0.184-0.455,0.443-0.949,0.673-1.369l0.828-1.495h0.92v3.876
			h-0.805v-1.127c0-0.587,0.018-1.109,0.069-1.622h-0.012c-0.178,0.438-0.402,0.921-0.632,1.329l-0.805,1.42h-1.024v-3.876H38.334z"
			/>
		<path d="M41.906,123.125c0.305,0,0.494,0.207,0.494,0.465c-0.005,0.266-0.189,0.467-0.489,0.467c-0.299,0-0.495-0.201-0.495-0.467
			c0-0.258,0.19-0.465,0.483-0.465H41.906z M42.343,119.945v2.812h-0.875v-2.812H42.343z"/>
		<path d="M44.022,119.945v2.168h0.558v0.644h-0.563v0.145c0,0.275,0.121,0.5,0.408,0.5c0.115,0,0.207-0.018,0.282-0.04l0.035,0.673
			c-0.121,0.029-0.271,0.058-0.46,0.058c-0.259,0-0.558-0.075-0.782-0.282c-0.248-0.229-0.351-0.604-0.351-0.943v-0.109h-0.374
			v-0.644h0.374v-2.168H44.022z"/>
		<path d="M45.212,123.286v-0.529h-0.374v-0.644h0.374v-1.155c0-0.397,0.081-0.668,0.241-0.834c0.144-0.145,0.38-0.242,0.662-0.242
			c0.242,0,0.454,0.035,0.563,0.075l-0.006,0.661c-0.081-0.018-0.138-0.023-0.259-0.023c-0.259,0-0.345,0.156-0.345,0.495v1.023
			h0.626v0.644h-0.626v0.766L45.212,123.286z"/>
		<path d="M46.92,122.756l1.035-2.57c0.029-0.068,0.034-0.115,0.034-0.144c0-0.04-0.017-0.081-0.046-0.126
			c-0.081-0.139-0.23-0.282-0.362-0.352c-0.132-0.074-0.27-0.126-0.379-0.149l0.184-0.735c0.224,0.022,0.546,0.12,0.845,0.385
			c0.316,0.281,0.586,0.725,0.989,1.84l0.655,1.852h-0.937l-0.345-1.379c-0.04-0.162-0.086-0.375-0.126-0.523H48.45
			c-0.035,0.148-0.092,0.355-0.138,0.523l-0.42,1.379H46.92z"/>
		<path d="M50.244,119.945h0.852v1.634c0,0.074,0.005,0.154,0.034,0.224c0.052,0.138,0.184,0.311,0.408,0.311
			c0.282,0,0.409-0.241,0.409-0.593v-1.575h0.851v1.645c0,0.069,0.011,0.155,0.029,0.219c0.063,0.167,0.201,0.305,0.408,0.305
			c0.282,0,0.414-0.235,0.414-0.644v-1.524H54.5v1.656c0,0.84-0.408,1.22-0.949,1.22c-0.207,0-0.38-0.053-0.535-0.139
			c-0.138-0.08-0.259-0.195-0.368-0.345h-0.012c-0.121,0.293-0.402,0.483-0.771,0.483c-0.478,0-0.73-0.266-0.851-0.449h-0.018
			l-0.034,0.385h-0.742c0.012-0.252,0.023-0.546,0.023-0.896V119.945z"/>
		<path d="M55.627,123.125c0.305,0,0.494,0.207,0.494,0.465c-0.005,0.266-0.189,0.467-0.489,0.467c-0.299,0-0.495-0.201-0.495-0.467
			c0-0.258,0.19-0.465,0.483-0.465H55.627z M56.064,119.945v2.812H55.19v-2.812H56.064z"/>
		<path d="M56.887,123.286v-0.529h-0.374v-0.644h0.374v-1.155c0-0.397,0.081-0.668,0.241-0.834c0.144-0.145,0.38-0.242,0.662-0.242
			c0.242,0,0.454,0.035,0.563,0.075l-0.006,0.661c-0.081-0.018-0.138-0.023-0.259-0.023c-0.259,0-0.345,0.156-0.345,0.495v1.023
			h0.626v0.644h-0.626v0.766L56.887,123.286z"/>
		<path d="M58.997,123.286v-0.529h-0.374v-0.644h0.374v-1.155c0-0.397,0.081-0.668,0.241-0.834c0.144-0.145,0.38-0.242,0.662-0.242
			c0.242,0,0.454,0.035,0.563,0.075l-0.006,0.661c-0.081-0.018-0.138-0.023-0.259-0.023c-0.259,0-0.345,0.156-0.345,0.495v1.023
			h0.626v0.644h-0.626v0.766L58.997,123.286z"/>
		<path d="M63.442,121.072c0.012,0.069,0.029,0.202,0.029,0.351c0,0.696-0.345,1.404-1.253,1.404c-0.972,0-1.42-0.789-1.42-1.502
			c0-0.885,0.546-1.438,1.501-1.438c0.379,0,0.73,0.058,1.018,0.178l-0.115,0.593c-0.236-0.08-0.478-0.12-0.776-0.12
			c-0.408,0-0.765,0.172-0.794,0.54L63.442,121.072z M61.625,121.676c0.023,0.229,0.172,0.568,0.546,0.568
			c0.396,0,0.489-0.361,0.489-0.568H61.625z"/>
		<path d="M63.994,119.945h0.875v1.421c0,0.074,0.005,0.138,0.017,0.195c0.058,0.275,0.276,0.442,0.598,0.442
			c0.098,0,0.167-0.011,0.242-0.022v0.822c-0.063,0.012-0.104,0.018-0.184,0.018c-0.276,0-0.616-0.173-0.759-0.587h-0.023
			l-0.035,0.522h-0.748c0.017-0.24,0.023-0.512,0.023-0.926L63.994,119.945z"/>
		<path d="M67.042,122.756l1.023-2.812h0.875l1.046,2.812h-0.92l-0.362-1.305c-0.063-0.242-0.109-0.455-0.155-0.685h-0.018
			c-0.046,0.225-0.092,0.448-0.161,0.685l-0.38,1.305H67.042z"/>
		<path d="M71.631,119.881c0.943,0,1.409,0.8,1.409,1.949c0,1.024-0.397,1.916-1.392,1.916c-0.966,0-1.42-0.852-1.42-1.938
			c0.005-1.058,0.431-1.927,1.397-1.927H71.631z M71.631,120.543c-0.333,0-0.541,0.414-0.535,1.276c0,0.845,0.207,1.265,0.535,1.265
			c0.351,0,0.529-0.437,0.529-1.265c0-0.852-0.184-1.276-0.523-1.276H71.631z"/>
		<path d="M74.029,119.881c0.311,0,0.518,0.225,0.518,0.529c-0.006,0.322-0.213,0.535-0.512,0.535c-0.305,0-0.518-0.219-0.518-0.535
			c0-0.305,0.213-0.529,0.506-0.529H74.029z"/>
		<path d="M77.624,119.945v0.719h-1.415v0.012l0.345,0.288c0.546,0.482,0.995,0.982,0.995,1.609c0,0.679-0.46,1.174-1.311,1.174
			c-0.5,0-0.943-0.173-1.219-0.386l0.247-0.621c0.196,0.144,0.478,0.305,0.799,0.305c0.432,0,0.61-0.241,0.61-0.546
			c-0.006-0.438-0.403-0.857-1.225-1.594l-0.478-0.431v-0.529H77.624z"/>
		<path d="M78.136,120.14c0.218-0.132,0.626-0.259,1.109-0.259c0.949,0,1.53,0.483,1.53,1.139c0,0.494-0.362,0.834-0.812,0.914
			v0.012c0.461,0.156,0.685,0.472,0.685,0.869c0,0.512-0.442,0.932-1.236,0.932c-0.489,0-0.932-0.139-1.156-0.282l0.178-0.633
			c0.149,0.093,0.472,0.225,0.776,0.225c0.374,0,0.552-0.167,0.552-0.392c0-0.316-0.368-0.431-0.661-0.431h-0.339v-0.627h0.357
			c0.379,0,0.747-0.167,0.747-0.54c0-0.277-0.229-0.495-0.684-0.495c-0.357,0-0.713,0.144-0.869,0.229L78.136,120.14z"/>
		<path d="M81.108,119.514v-0.288h2.875v0.288H81.108z"/>
		<path d="M87.078,120.739c-0.178-0.075-0.466-0.127-0.736-0.127c-0.776,0-1.236,0.488-1.236,1.266c0,0.868,0.541,1.288,1.231,1.288
			c0.315,0,0.563-0.069,0.735-0.144l0.185,0.689c-0.155,0.08-0.501,0.173-0.955,0.173c-1.173,0-2.116-0.73-2.116-2.054
			c0-1.109,0.69-1.949,2.03-1.949c0.466,0,0.834,0.092,0.989,0.167L87.078,120.739z"/>
		<path d="M90.321,120.739c-0.178-0.075-0.466-0.127-0.736-0.127c-0.776,0-1.236,0.488-1.236,1.266c0,0.868,0.541,1.288,1.231,1.288
			c0.315,0,0.563-0.069,0.735-0.144l0.185,0.689c-0.155,0.08-0.501,0.173-0.955,0.173c-1.173,0-2.116-0.73-2.116-2.054
			c0-1.109,0.69-1.949,2.03-1.949c0.466,0,0.834,0.092,0.989,0.167L90.321,120.739z"/>
		<path d="M90.822,121.745v-0.58h1.507v0.58H90.822z"/>
		<path d="M92.881,119.961c0.195-0.028,0.518-0.057,0.948-0.057c0.771,0,1.242,0.127,1.524,0.351
			c0.241,0.19,0.402,0.466,0.402,0.822c0,0.501-0.328,0.84-0.771,0.954v0.012c0.432,0.167,0.633,0.483,0.633,0.822
			c0,0.357-0.19,0.621-0.46,0.766c-0.282,0.166-0.61,0.219-1.145,0.219c-0.443,0-0.903-0.041-1.133-0.087V119.961z M93.749,123.182
			c0.069,0.018,0.178,0.029,0.374,0.029c0.396,0,0.621-0.155,0.621-0.449c0-0.287-0.242-0.477-0.708-0.477h-0.287V123.182z
			 M93.749,121.659h0.299c0.438,0,0.788-0.155,0.788-0.547c0-0.408-0.351-0.563-0.748-0.563c-0.149,0-0.253,0-0.339,0.017V121.659z"
			/>
		<path d="M98.125,119.945v1.616l1.277,2.26h-0.983l-0.392-0.932c-0.114-0.275-0.207-0.5-0.293-0.742h-0.012
			c-0.092,0.254-0.178,0.461-0.299,0.742l-0.391,0.932h-1.007l1.225-2.289v-1.587H98.125z"/>
		<path d="M99.615,121.745v-0.58h1.507v0.58H99.615z"/>
		<path d="M101.524,120.124c0.218-0.121,0.655-0.242,1.098-0.242c1.064,0,1.559,0.553,1.559,1.202c0,0.552-0.316,0.909-1,1.161
			c-0.507,0.196-0.72,0.305-0.72,0.553c0,0.195,0.185,0.373,0.564,0.373c0.373,0,0.655-0.108,0.805-0.184l0.195,0.701
			c-0.229,0.109-0.546,0.196-0.989,0.196c-0.908,0-1.466-0.501-1.466-1.161c0-0.57,0.425-0.927,1.069-1.156
			c0.466-0.161,0.649-0.305,0.649-0.541c0-0.259-0.212-0.426-0.615-0.426c-0.373,0-0.741,0.121-0.972,0.242L101.524,120.124z"/>
		<path d="M106.792,120.94l0.299-0.995h0.943l-1.208,3.876h-1.145l-1.185-3.876h0.909l0.27,0.995H106.792z M105.803,121.595
			l0.235,0.822c0.058,0.225,0.121,0.518,0.173,0.748h0.018c0.058-0.225,0.126-0.518,0.189-0.748l0.241-0.822H105.803z"/>
	</g>
	<g>
		<path d="M50.885,75.57l0.717-2.452h0.717l0.246,0.863c0.061,0.225,0.11,0.455,0.156,0.762h0.01
			c0.05-0.307,0.095-0.527,0.161-0.768l0.23-0.857h0.712l0.752,2.452h-0.747l-0.206-0.973c-0.06-0.28-0.11-0.562-0.146-0.837h-0.01
			c-0.045,0.28-0.11,0.551-0.181,0.832l-0.246,0.978h-0.602l-0.261-1.013c-0.055-0.24-0.13-0.521-0.175-0.797h-0.015
			c-0.04,0.28-0.09,0.551-0.135,0.802l-0.201,1.008H50.885z"/>
		<path d="M54.69,75.57l0.717-2.452h0.717l0.246,0.863c0.061,0.225,0.11,0.455,0.156,0.762h0.01c0.05-0.307,0.095-0.527,0.161-0.768
			l0.23-0.857h0.712l0.752,2.452h-0.747l-0.206-0.973c-0.06-0.28-0.11-0.562-0.146-0.837h-0.01c-0.045,0.28-0.11,0.551-0.181,0.832
			l-0.246,0.978h-0.602l-0.261-1.013c-0.055-0.24-0.13-0.521-0.175-0.797h-0.015c-0.04,0.28-0.09,0.551-0.135,0.802l-0.201,1.008
			H54.69z"/>
		<path d="M58.495,75.57l0.717-2.452h0.717l0.246,0.863c0.06,0.225,0.11,0.455,0.156,0.762h0.01c0.05-0.307,0.095-0.527,0.161-0.768
			l0.23-0.857h0.712l0.752,2.452h-0.747l-0.206-0.973c-0.06-0.28-0.11-0.562-0.146-0.837h-0.01c-0.045,0.28-0.11,0.551-0.181,0.832
			l-0.246,0.978h-0.602l-0.261-1.013c-0.055-0.24-0.13-0.521-0.175-0.797h-0.015c-0.04,0.28-0.09,0.551-0.135,0.802l-0.201,1.008
			H58.495z"/>
		<path d="M62.701,73.063c0.271,0,0.451,0.195,0.451,0.461c-0.005,0.281-0.186,0.467-0.446,0.467c-0.266,0-0.451-0.191-0.451-0.467
			c0-0.266,0.186-0.461,0.441-0.461H62.701z"/>
		<path d="M64.747,73.063c0.651,0,1.288,0.411,1.288,1.303c0,0.742-0.501,1.259-1.248,1.259c-0.792,0-1.313-0.506-1.313-1.298
			c0-0.793,0.551-1.264,1.268-1.264H64.747z M64.751,73.61c-0.321,0-0.497,0.315-0.497,0.731c0,0.366,0.141,0.737,0.501,0.737
			c0.346,0,0.486-0.371,0.486-0.732c0-0.441-0.186-0.736-0.486-0.736H64.751z"/>
		<path d="M66.506,72.125h0.762v1.219h0.01c0.11-0.161,0.341-0.281,0.637-0.281c0.546,0,1.113,0.421,1.113,1.313
			c0,0.782-0.481,1.248-1.018,1.248c-0.356,0-0.637-0.14-0.817-0.396h-0.01l-0.035,0.341h-0.662c0.01-0.231,0.02-0.501,0.02-0.822
			V72.125z M67.268,74.506c0,0.045,0.005,0.096,0.015,0.136c0.05,0.226,0.24,0.386,0.456,0.386c0.341,0,0.516-0.295,0.516-0.687
			c0-0.416-0.195-0.692-0.526-0.692c-0.22,0-0.396,0.156-0.446,0.361c-0.01,0.051-0.015,0.101-0.015,0.16V74.506z"/>
		<path d="M71.685,74.1c0.01,0.061,0.025,0.176,0.025,0.307c0,0.606-0.301,1.223-1.093,1.223c-0.847,0-1.238-0.687-1.238-1.309
			c0-0.771,0.476-1.253,1.308-1.253c0.331,0,0.637,0.05,0.888,0.155l-0.101,0.517c-0.206-0.07-0.416-0.105-0.677-0.105
			c-0.356,0-0.667,0.15-0.692,0.472L71.685,74.1z M70.1,74.627c0.02,0.2,0.15,0.496,0.477,0.496c0.346,0,0.426-0.316,0.426-0.496
			H70.1z"/>
		<path d="M72.166,73.118h0.762v1.414c0,0.07,0.005,0.141,0.025,0.19c0.055,0.141,0.181,0.286,0.391,0.286
			c0.276,0,0.386-0.216,0.386-0.531v-1.359h0.762v1.449c0,0.723-0.376,1.058-0.877,1.058c-0.411,0-0.657-0.235-0.757-0.396h-0.015
			l-0.035,0.341h-0.662c0.01-0.221,0.02-0.477,0.02-0.782V73.118z"/>
		<path d="M75.179,76.031V75.57h-0.326v-0.562h0.326V74c0-0.346,0.07-0.582,0.21-0.727c0.125-0.125,0.331-0.211,0.577-0.211
			c0.21,0,0.396,0.03,0.491,0.065l-0.005,0.576c-0.07-0.015-0.121-0.021-0.226-0.021c-0.226,0-0.301,0.136-0.301,0.432v0.893h0.546
			v0.562h-0.546v0.667L75.179,76.031z"/>
		<path d="M76.913,73.118h0.762v1.454c0,0.056,0.005,0.12,0.025,0.165c0.055,0.141,0.181,0.271,0.381,0.271
			c0.286,0,0.396-0.221,0.396-0.541v-1.35h0.762v1.43c0,0.742-0.372,1.077-0.858,1.077c-0.14,0-0.281-0.034-0.396-0.095
			c-0.12-0.061-0.22-0.146-0.301-0.256h-0.01v1.403h-0.762V73.118z"/>
		<path d="M80.231,75.891c0.266,0,0.432,0.18,0.432,0.405c-0.005,0.23-0.166,0.406-0.427,0.406s-0.431-0.176-0.431-0.406
			c0-0.226,0.165-0.405,0.421-0.405H80.231z M80.612,73.118v2.452h-0.762v-2.452H80.612z"/>
		<path d="M81.224,73.118h0.762v1.414c0,0.07,0.006,0.141,0.025,0.19c0.056,0.141,0.181,0.286,0.391,0.286
			c0.276,0,0.387-0.216,0.387-0.531v-1.359h0.762v1.449c0,0.723-0.376,1.058-0.877,1.058c-0.411,0-0.657-0.235-0.757-0.396H81.9
			l-0.035,0.341h-0.661c0.01-0.221,0.02-0.477,0.02-0.782V73.118z"/>
		<path d="M86.483,74.838c0,0.365,0.01,0.57,0.02,0.731h-0.661l-0.025-0.291h-0.01c-0.125,0.2-0.336,0.346-0.672,0.346
			c-0.606,0-1.113-0.501-1.113-1.293c0-0.702,0.432-1.193,1.038-1.193c0.28,0,0.517,0.115,0.662,0.315h0.01v-0.154
			c0-0.457-0.275-0.647-0.637-0.647c-0.291,0-0.557,0.095-0.712,0.186l-0.15-0.581c0.221-0.121,0.557-0.186,0.882-0.186
			c0.361,0,0.728,0.07,0.993,0.301c0.28,0.245,0.376,0.631,0.376,1.103V74.838z M85.722,74.211c0-0.065-0.006-0.146-0.025-0.206
			c-0.05-0.175-0.206-0.306-0.406-0.306c-0.315,0-0.496,0.285-0.496,0.652c0,0.445,0.221,0.696,0.501,0.696
			c0.211,0,0.356-0.136,0.411-0.336c0.01-0.046,0.016-0.095,0.016-0.141V74.211z"/>
		<path d="M87.341,73.063c0.271,0,0.451,0.195,0.451,0.461c-0.006,0.281-0.186,0.467-0.446,0.467c-0.266,0-0.451-0.191-0.451-0.467
			c0-0.266,0.186-0.461,0.44-0.461H87.341z"/>
		<path d="M89.385,73.063c0.652,0,1.289,0.411,1.289,1.303c0,0.742-0.502,1.259-1.249,1.259c-0.792,0-1.313-0.506-1.313-1.298
			c0-0.793,0.552-1.264,1.269-1.264H89.385z M89.39,73.61c-0.32,0-0.496,0.315-0.496,0.731c0,0.366,0.141,0.737,0.502,0.737
			c0.346,0,0.485-0.371,0.485-0.732c0-0.441-0.185-0.736-0.485-0.736H89.39z"/>
		<path d="M91.145,73.118h0.762v1.238c0,0.065,0.006,0.121,0.016,0.171c0.05,0.241,0.24,0.386,0.521,0.386
			c0.085,0,0.146-0.01,0.21-0.02v0.717c-0.055,0.01-0.09,0.015-0.16,0.015c-0.24,0-0.536-0.15-0.662-0.511h-0.02l-0.03,0.456H91.13
			c0.015-0.211,0.02-0.446,0.02-0.808L91.145,73.118z"/>
		<path d="M95.331,74.838c0,0.365,0.01,0.57,0.02,0.731h-0.661l-0.025-0.291h-0.01c-0.125,0.2-0.336,0.346-0.672,0.346
			c-0.606,0-1.113-0.501-1.113-1.293c0-0.702,0.432-1.193,1.038-1.193c0.28,0,0.517,0.115,0.662,0.315h0.01v-0.154
			c0-0.457-0.275-0.647-0.637-0.647c-0.291,0-0.557,0.095-0.712,0.186l-0.15-0.581c0.221-0.121,0.557-0.186,0.882-0.186
			c0.361,0,0.728,0.07,0.993,0.301c0.28,0.245,0.376,0.631,0.376,1.103V74.838z M94.569,74.211c0-0.065-0.006-0.146-0.025-0.206
			c-0.05-0.175-0.206-0.306-0.406-0.306c-0.315,0-0.496,0.285-0.496,0.652c0,0.445,0.221,0.696,0.501,0.696
			c0.211,0,0.356-0.136,0.411-0.336c0.01-0.046,0.016-0.095,0.016-0.141V74.211z"/>
		<path d="M96.224,72.917l1.072,3.635H96.79l-1.073-3.635H96.224z"/>
		<path d="M97.602,72.125h0.762v1.219h0.011c0.11-0.161,0.341-0.281,0.637-0.281c0.546,0,1.112,0.421,1.112,1.313
			c0,0.782-0.481,1.248-1.018,1.248c-0.355,0-0.637-0.14-0.817-0.396h-0.01l-0.035,0.341h-0.661c0.01-0.231,0.02-0.501,0.02-0.822
			V72.125z M98.363,74.506c0,0.045,0.006,0.096,0.016,0.136c0.05,0.226,0.24,0.386,0.456,0.386c0.341,0,0.517-0.295,0.517-0.687
			c0-0.416-0.196-0.692-0.526-0.692c-0.221,0-0.396,0.156-0.446,0.361c-0.01,0.051-0.016,0.101-0.016,0.16V74.506z"/>
		<path d="M100.6,73.118h0.762v1.238c0,0.065,0.006,0.121,0.016,0.171c0.05,0.241,0.24,0.386,0.521,0.386
			c0.085,0,0.146-0.01,0.21-0.02v0.717c-0.055,0.01-0.09,0.015-0.16,0.015c-0.24,0-0.536-0.15-0.662-0.511h-0.02l-0.03,0.456h-0.651
			c0.015-0.211,0.02-0.446,0.02-0.808L100.6,73.118z"/>
		<path d="M103.603,73.063c0.652,0,1.289,0.411,1.289,1.303c0,0.742-0.502,1.259-1.249,1.259c-0.792,0-1.313-0.506-1.313-1.298
			c0-0.793,0.552-1.264,1.269-1.264H103.603z M103.607,73.61c-0.32,0-0.496,0.315-0.496,0.731c0,0.366,0.141,0.737,0.502,0.737
			c0.346,0,0.486-0.371,0.486-0.732c0-0.441-0.186-0.736-0.486-0.736H103.607z"/>
		<path d="M106.991,76.677v-1.328h-0.01c-0.11,0.165-0.341,0.275-0.646,0.275c-0.587,0-1.104-0.481-1.099-1.304
			c0-0.762,0.467-1.258,1.048-1.258c0.316,0,0.617,0.141,0.768,0.411h0.015l0.03-0.356h0.677c-0.01,0.166-0.021,0.451-0.021,0.732
			v2.827H106.991z M106.991,74.206c0-0.06-0.005-0.119-0.015-0.17c-0.046-0.216-0.226-0.366-0.446-0.366
			c-0.316,0-0.521,0.261-0.521,0.672c0,0.386,0.176,0.696,0.526,0.696c0.235,0,0.401-0.165,0.446-0.371
			c0.01-0.045,0.01-0.095,0.01-0.14V74.206z"/>
		<path d="M110.676,75.57h-0.763v-1.459c0-0.065-0.01-0.12-0.029-0.165c-0.046-0.121-0.171-0.266-0.382-0.266
			c-0.271,0-0.386,0.215-0.386,0.57v1.319h-0.762v-1.438c0-0.758,0.36-1.068,0.862-1.068c0.441,0,0.672,0.25,0.767,0.4h0.016
			l0.035-0.346h0.661c-0.01,0.206-0.02,0.467-0.02,0.787V75.57z"/>
		<path d="M113.037,73.74c-0.115-0.05-0.256-0.08-0.437-0.08c-0.371,0-0.672,0.241-0.672,0.692c-0.005,0.4,0.256,0.686,0.657,0.686
			c0.2,0,0.336-0.035,0.426-0.074l0.12,0.566c-0.16,0.061-0.381,0.095-0.581,0.095c-0.913,0-1.404-0.587-1.404-1.304
			c0-0.771,0.507-1.258,1.299-1.258c0.291,0,0.547,0.051,0.682,0.115L113.037,73.74z"/>
		<path d="M113.733,76.031V75.57h-0.326v-0.562h0.326V74c0-0.346,0.07-0.582,0.211-0.727c0.125-0.125,0.33-0.211,0.576-0.211
			c0.21,0,0.396,0.03,0.491,0.065l-0.005,0.576c-0.07-0.015-0.12-0.021-0.226-0.021c-0.226,0-0.301,0.136-0.301,0.432v0.893h0.546
			v0.562h-0.546v0.667L113.733,76.031z"/>
		<path d="M115.327,73.239c0.186-0.101,0.472-0.176,0.792-0.176c0.702,0,1.059,0.336,1.059,0.797
			c-0.006,0.355-0.196,0.597-0.662,0.752c-0.301,0.105-0.396,0.166-0.396,0.286s0.105,0.195,0.291,0.195
			c0.206,0,0.421-0.08,0.531-0.136l0.131,0.521c-0.15,0.076-0.401,0.146-0.687,0.146c-0.607,0-0.998-0.346-0.998-0.808
			c-0.005-0.285,0.19-0.566,0.702-0.73c0.28-0.096,0.355-0.156,0.355-0.287c0-0.125-0.095-0.199-0.326-0.199
			c-0.226,0-0.516,0.095-0.656,0.18L115.327,73.239z"/>
		<path d="M117.925,72.917l1.072,3.635h-0.506l-1.073-3.635H117.925z"/>
		<path d="M119.303,73.118h0.762v1.414c0,0.07,0.006,0.141,0.025,0.19c0.056,0.141,0.181,0.286,0.391,0.286
			c0.276,0,0.387-0.216,0.387-0.531v-1.359h0.762v1.449c0,0.723-0.376,1.058-0.877,1.058c-0.411,0-0.657-0.235-0.757-0.396h-0.016
			l-0.035,0.341h-0.661c0.01-0.221,0.02-0.477,0.02-0.782V73.118z"/>
		<path d="M122.621,75.891c0.266,0,0.432,0.18,0.432,0.405c-0.005,0.23-0.166,0.406-0.427,0.406s-0.431-0.176-0.431-0.406
			c0-0.226,0.165-0.405,0.421-0.405H122.621z M123.002,73.118v2.452h-0.762v-2.452H123.002z"/>
		<path d="M124.467,73.118v1.891h0.486v0.562h-0.491v0.125c0,0.241,0.104,0.437,0.355,0.437c0.101,0,0.181-0.016,0.246-0.035
			l0.029,0.586c-0.104,0.025-0.235,0.051-0.4,0.051c-0.226,0-0.486-0.065-0.682-0.246c-0.216-0.2-0.306-0.526-0.306-0.822V75.57
			h-0.326v-0.562h0.326v-1.891H124.467z"/>
		<path d="M125.504,76.031V75.57h-0.326v-0.562h0.326V74c0-0.346,0.07-0.582,0.211-0.727c0.125-0.125,0.33-0.211,0.576-0.211
			c0.21,0,0.396,0.03,0.491,0.065l-0.005,0.576c-0.07-0.015-0.12-0.021-0.226-0.021c-0.226,0-0.301,0.136-0.301,0.432v0.893h0.546
			v0.562h-0.546v0.667L125.504,76.031z"/>
		<path d="M126.993,75.57l0.902-2.241c0.024-0.061,0.03-0.1,0.03-0.125c0-0.035-0.016-0.07-0.04-0.11
			c-0.07-0.12-0.201-0.245-0.316-0.306c-0.115-0.065-0.235-0.11-0.331-0.131l0.161-0.642c0.195,0.021,0.476,0.105,0.736,0.336
			c0.276,0.245,0.512,0.632,0.862,1.604l0.571,1.614h-0.816l-0.301-1.204c-0.035-0.14-0.075-0.325-0.11-0.455h-0.016
			c-0.03,0.13-0.08,0.311-0.12,0.455l-0.366,1.204H126.993z"/>
		<path d="M129.891,73.118h0.742v1.424c0,0.065,0.005,0.136,0.03,0.195c0.045,0.121,0.16,0.271,0.355,0.271
			c0.246,0,0.356-0.211,0.356-0.517v-1.374h0.741v1.434c0,0.061,0.011,0.137,0.025,0.191c0.056,0.145,0.176,0.266,0.356,0.266
			c0.245,0,0.36-0.205,0.36-0.562v-1.329h0.742v1.444c0,0.731-0.356,1.063-0.827,1.063c-0.181,0-0.331-0.045-0.467-0.12
			c-0.12-0.07-0.226-0.17-0.32-0.301h-0.01c-0.105,0.256-0.352,0.421-0.672,0.421c-0.416,0-0.637-0.23-0.742-0.391h-0.015
			l-0.03,0.336h-0.646c0.01-0.221,0.02-0.477,0.02-0.782V73.118z"/>
		<path d="M134.582,75.891c0.266,0,0.432,0.18,0.432,0.405c-0.005,0.23-0.166,0.406-0.427,0.406s-0.431-0.176-0.431-0.406
			c0-0.226,0.165-0.405,0.421-0.405H134.582z M134.963,73.118v2.452h-0.762v-2.452H134.963z"/>
		<path d="M135.681,76.031V75.57h-0.326v-0.562h0.326V74c0-0.346,0.07-0.582,0.211-0.727c0.125-0.125,0.33-0.211,0.576-0.211
			c0.21,0,0.396,0.03,0.491,0.065l-0.005,0.576c-0.07-0.015-0.12-0.021-0.226-0.021c-0.226,0-0.301,0.136-0.301,0.432v0.893h0.546
			v0.562h-0.546v0.667L135.681,76.031z"/>
		<path d="M137.521,76.031V75.57h-0.326v-0.562h0.326V74c0-0.346,0.07-0.582,0.211-0.727c0.125-0.125,0.33-0.211,0.576-0.211
			c0.21,0,0.396,0.03,0.491,0.065l-0.005,0.576c-0.07-0.015-0.12-0.021-0.226-0.021c-0.226,0-0.301,0.136-0.301,0.432v0.893h0.546
			v0.562h-0.546v0.667L137.521,76.031z"/>
		<path d="M141.396,74.1c0.01,0.061,0.024,0.176,0.024,0.307c0,0.606-0.301,1.223-1.093,1.223c-0.847,0-1.238-0.687-1.238-1.309
			c0-0.771,0.477-1.253,1.309-1.253c0.331,0,0.637,0.05,0.888,0.155l-0.101,0.517c-0.205-0.07-0.416-0.105-0.677-0.105
			c-0.355,0-0.667,0.15-0.691,0.472L141.396,74.1z M139.812,74.627c0.02,0.2,0.15,0.496,0.476,0.496
			c0.346,0,0.427-0.316,0.427-0.496H139.812z"/>
		<path d="M141.877,73.118h0.762v1.238c0,0.065,0.006,0.121,0.016,0.171c0.05,0.241,0.24,0.386,0.521,0.386
			c0.085,0,0.146-0.01,0.21-0.02v0.717c-0.055,0.01-0.09,0.015-0.16,0.015c-0.24,0-0.536-0.15-0.662-0.511h-0.02l-0.03,0.456h-0.651
			c0.015-0.211,0.02-0.446,0.02-0.808L141.877,73.118z"/>
	</g>
	<polyline fill="none" stroke="#000000" stroke-width="2" points="94.457,112.048 108.859,112.048 116.059,119.249 	"/>
	<polyline fill="none" stroke="#000000" stroke-width="2" points="155.659,72.447 148.459,72.447 141.26,83.248 	"/>
	<polyline fill="none" stroke="#000000" stroke-width="2" points="130.459,90.447 144.859,90.447 152.06,97.647 155.659,97.647 	"/>
	<g>
		<path d="M35.588,108.648c0.097-0.005,0.236-0.01,0.371,0c0.548,0.021,1.011,0.184,1.344,0.49c0.376,0.35,0.607,0.876,0.607,1.607
			c0,0.816-0.424,1.505-1.322,1.505c-0.769,0-1.317-0.575-1.317-1.259c0-0.682,0.495-1.091,1.086-1.091
			c0.323,0,0.548,0.092,0.71,0.253l0.011-0.006c-0.059-0.264-0.21-0.494-0.441-0.645c-0.188-0.129-0.441-0.205-0.693-0.215
			c-0.162-0.012-0.248-0.017-0.355,0V108.648z M36.566,111.654c0.371,0,0.516-0.365,0.511-0.736c0-0.103-0.011-0.156-0.038-0.21
			c-0.081-0.124-0.231-0.226-0.462-0.226c-0.328,0-0.495,0.258-0.495,0.559c0,0.365,0.204,0.613,0.479,0.613H36.566z"/>
		<path d="M40.26,108.697l1.22,3.623h-0.871l-0.462-1.548c-0.124-0.414-0.237-0.845-0.328-1.279h-0.016
			c-0.086,0.451-0.199,0.86-0.322,1.296l-0.441,1.531h-0.898l1.161-3.623H40.26z"/>
	</g>
	<g>
		<path d="M38.177,82.591h-1.264v-0.6h0.524v-0.715c-0.061-0.025-0.202-0.045-0.373-0.045c-0.63,0-1.073,0.407-1.073,1.112
			c0,0.735,0.489,1.099,1.128,1.099c0.373,0,0.6-0.061,0.786-0.146l0.161,0.619c-0.166,0.076-0.503,0.162-0.942,0.162
			c-1.113,0-1.934-0.646-1.939-1.773c0-0.498,0.171-0.941,0.479-1.239c0.313-0.297,0.761-0.453,1.38-0.453
			c0.448,0,0.897,0.11,1.133,0.191V82.591z"/>
		<path d="M39.482,80.647v1.022c0,0.555-0.01,1.033-0.035,1.486h0.02c0.161-0.398,0.388-0.832,0.589-1.199l0.725-1.31h0.806v3.396
			h-0.705v-0.988c0-0.514,0.015-0.972,0.06-1.42h-0.01c-0.156,0.383-0.353,0.806-0.554,1.164l-0.705,1.244h-0.896v-3.396H39.482z"/>
		<path d="M42.252,80.662c0.186-0.025,0.473-0.05,0.871-0.05c0.665,0,1.214,0.142,1.572,0.438c0.322,0.277,0.559,0.725,0.559,1.375
			c0,0.604-0.222,1.027-0.574,1.289c-0.322,0.247-0.746,0.353-1.396,0.353c-0.383,0-0.75-0.024-1.032-0.075V80.662z M43.018,83.447
			c0.065,0.016,0.181,0.031,0.348,0.031c0.665,0,1.078-0.348,1.078-1.078c0-0.811-0.458-1.193-1.159-1.189
			c-0.09,0-0.201,0-0.267,0.016V83.447z"/>
	</g>
	<rect x="33.259" y="65.247" opacity="0.8" fill="#FFFFFF" stroke="#000000" stroke-width="0.1" width="147.401" height="65.197"/>
</g>
<g id="Layer_2_1_">
	<line fill="#662D91" stroke="#ED1C24" stroke-width="2" x1="44.059" y1="104.847" x2="6.86" y2="108.765"/>
	<line fill="#5B57A6" stroke="#91278F" stroke-width="2" x1="44.059" y1="90.448" x2="5.128" y2="85.963"/>
	<line fill="none" stroke="#000000" stroke-width="2" x1="0.125" y1="70.499" x2="44.059" y2="76.047"/>
	<line fill="none" stroke="#ED1C24" stroke-width="2" x1="251.158" y1="115.646" x2="251.158" y2="130.045"/>
	<ellipse fill="#F7931D" cx="335.659" cy="203.295" rx="3.6" ry="5.4"/>
	<rect x="306.858" y="194.295" fill="#971B1E" width="14.399" height="7.201"/>
	<line fill="none" stroke="#ED1C24" stroke-width="2" x1="281.658" y1="197.7" x2="296.06" y2="197.7"/>
	<ellipse fill="#00ADEF" cx="290.658" cy="197.896" rx="5.397" ry="3.601"/>
	<rect x="242.06" y="230.295" fill="#971B1E" width="14.399" height="7.201"/>
	<line fill="none" stroke="#ED1C24" stroke-width="2" x1="270.858" y1="233.894" x2="270.858" y2="194.295"/>
	<circle fill="#808284" cx="252.858" cy="194.296" r="7.2"/>
	<g>
		<path fill="#FFFFFF" stroke="#000000" stroke-width="0.1" d="M248.437,193.889c0-0.356-0.012-0.654-0.023-0.911h0.753l0.035,0.392
			h0.018c0.122-0.187,0.38-0.455,0.864-0.455c0.373,0,0.66,0.192,0.782,0.49h0.012c0.11-0.152,0.233-0.269,0.374-0.351
			c0.157-0.088,0.332-0.14,0.543-0.14c0.549,0,0.963,0.385,0.963,1.237v1.682h-0.864v-1.547c0-0.415-0.134-0.654-0.421-0.654
			c-0.209,0-0.35,0.14-0.414,0.31c-0.018,0.064-0.029,0.151-0.029,0.222v1.67h-0.863v-1.6c0-0.356-0.129-0.602-0.415-0.602
			c-0.228,0-0.362,0.175-0.415,0.315c-0.029,0.07-0.035,0.151-0.035,0.228v1.658h-0.863V193.889z"/>
		<path fill="#FFFFFF" stroke="#000000" stroke-width="0.1" d="M253.896,192.605c-0.299,0-0.49-0.211-0.49-0.474
			c0-0.269,0.197-0.473,0.502-0.473c0.303,0,0.49,0.204,0.496,0.473c0,0.263-0.193,0.474-0.502,0.474H253.896z M253.457,195.833
			v-2.855h0.888v2.855H253.457z"/>
		<path fill="#FFFFFF" stroke="#000000" stroke-width="0.1" d="M257.2,195.763c-0.158,0.076-0.455,0.135-0.794,0.135
			c-0.923,0-1.513-0.566-1.513-1.466c0-0.835,0.572-1.518,1.635-1.518c0.234,0,0.49,0.04,0.678,0.11l-0.141,0.66
			c-0.104-0.047-0.262-0.088-0.496-0.088c-0.467,0-0.771,0.333-0.765,0.8c0,0.525,0.351,0.806,0.782,0.806
			c0.211,0,0.374-0.035,0.508-0.093L257.2,195.763z"/>
	</g>
	<g>
		<path fill="#FFFFFF" stroke="#000000" stroke-width="0.1" d="M287.009,189.259h-0.012l-0.725,0.345l-0.146-0.666l1.011-0.467
			h0.729v3.795h-0.858V189.259z"/>
		<path fill="#FFFFFF" stroke="#000000" stroke-width="0.1" d="M291.919,191.349c0,0.374,0.012,0.678,0.023,0.917h-0.771
			l-0.04-0.403h-0.018c-0.11,0.176-0.38,0.468-0.894,0.468c-0.584,0-1.004-0.362-1.004-1.244v-1.676h0.887v1.536
			c0,0.414,0.135,0.665,0.45,0.665c0.245,0,0.392-0.169,0.444-0.31c0.022-0.052,0.034-0.116,0.034-0.192v-1.699h0.888V191.349z"/>
		<path fill="#FFFFFF" stroke="#000000" stroke-width="0.1" d="M292.667,188.331h2.399v0.73h-1.513v0.898h1.413v0.725h-1.413v1.582
			h-0.887V188.331z"/>
	</g>
	<g>
		<path fill="#FFFFFF" stroke="#000000" stroke-width="0.1" d="M309.957,189.327h-0.012l-0.724,0.345l-0.146-0.666l1.01-0.467h0.73
			v3.795h-0.858V189.327z"/>
		<path fill="#FFFFFF" stroke="#000000" stroke-width="0.1" d="M313.431,192.398c-0.98,0-1.412-0.882-1.418-1.956
			c0-1.104,0.461-1.968,1.441-1.968c1.01,0,1.413,0.905,1.413,1.944c0,1.168-0.474,1.979-1.431,1.979H313.431z M313.442,191.726
			c0.345,0,0.531-0.432,0.531-1.296c0-0.841-0.181-1.284-0.537-1.284c-0.332,0-0.543,0.426-0.543,1.284
			c-0.006,0.876,0.205,1.296,0.543,1.296H313.442z"/>
		<path fill="#FFFFFF" stroke="#000000" stroke-width="0.1" d="M316.304,190.687h0.012c0.064-0.123,0.135-0.239,0.204-0.345
			l0.578-0.864h1.068l-1.021,1.156l1.167,1.699h-1.092l-0.694-1.174l-0.222,0.286v0.888h-0.888v-4.146h0.888V190.687z"/>
	</g>
	<g>
		<path fill="#FFFFFF" stroke="#000000" stroke-width="0.1" d="M244.29,240.827h-0.012l-0.724,0.345l-0.146-0.666l1.01-0.467h0.73
			v3.795h-0.859V240.827z"/>
		<path fill="#FFFFFF" stroke="#000000" stroke-width="0.1" d="M247.765,243.898c-0.981,0-1.413-0.882-1.419-1.956
			c0-1.104,0.461-1.968,1.442-1.968c1.01,0,1.412,0.905,1.412,1.944c0,1.168-0.473,1.979-1.43,1.979H247.765z M247.776,243.226
			c0.344,0,0.531-0.432,0.531-1.296c0-0.841-0.182-1.284-0.537-1.284c-0.333,0-0.543,0.426-0.543,1.284
			c-0.006,0.876,0.204,1.296,0.543,1.296H247.776z"/>
		<path fill="#FFFFFF" stroke="#000000" stroke-width="0.1" d="M250.638,242.187h0.012c0.063-0.123,0.134-0.239,0.203-0.345
			l0.578-0.864h1.068l-1.021,1.156l1.168,1.699h-1.092l-0.695-1.174l-0.221,0.286v0.888h-0.889v-4.146h0.889V242.187z"/>
	</g>
	<g>
		<path fill="#FFFFFF" stroke="#000000" stroke-width="0.1" d="M339.624,194.16h-0.012l-0.725,0.345l-0.146-0.666l1.011-0.467h0.729
			v3.795h-0.858V194.16z"/>
		<path fill="#FFFFFF" stroke="#000000" stroke-width="0.1" d="M343.098,197.231c-0.981,0-1.413-0.882-1.419-1.956
			c0-1.104,0.461-1.968,1.442-1.968c1.011,0,1.413,0.905,1.413,1.944c0,1.168-0.473,1.979-1.431,1.979H343.098z M343.109,196.559
			c0.345,0,0.531-0.432,0.531-1.296c0-0.841-0.181-1.284-0.537-1.284c-0.333,0-0.543,0.426-0.543,1.284
			c-0.006,0.876,0.204,1.296,0.543,1.296H343.109z"/>
		<path fill="#FFFFFF" stroke="#000000" stroke-width="0.1" d="M346.339,197.231c-0.981,0-1.413-0.882-1.419-1.956
			c0-1.104,0.461-1.968,1.442-1.968c1.01,0,1.412,0.905,1.412,1.944c0,1.168-0.473,1.979-1.43,1.979H346.339z M346.351,196.559
			c0.344,0,0.531-0.432,0.531-1.296c0-0.841-0.182-1.284-0.537-1.284c-0.333,0-0.543,0.426-0.543,1.284
			c-0.006,0.876,0.204,1.296,0.543,1.296H346.351z"/>
		<path fill="#FFFFFF" stroke="#000000" stroke-width="0.1" d="M349.579,197.231c-0.981,0-1.413-0.882-1.419-1.956
			c0-1.104,0.461-1.968,1.442-1.968c1.01,0,1.412,0.905,1.412,1.944c0,1.168-0.473,1.979-1.43,1.979H349.579z M349.591,196.559
			c0.344,0,0.531-0.432,0.531-1.296c0-0.841-0.182-1.284-0.537-1.284c-0.333,0-0.543,0.426-0.543,1.284
			c-0.006,0.876,0.204,1.296,0.543,1.296H349.591z"/>
		<path fill="#FFFFFF" stroke="#000000" stroke-width="0.1" d="M351.563,195.269c0-0.374-0.011-0.689-0.022-0.958h0.771l0.041,0.397
			h0.012c0.21-0.298,0.537-0.461,0.951-0.461c0.625,0,1.186,0.543,1.186,1.453c0,1.04-0.66,1.53-1.296,1.53
			c-0.345,0-0.613-0.141-0.741-0.327h-0.012v1.419h-0.889V195.269z M352.452,195.94c0,0.07,0.006,0.129,0.018,0.188
			c0.058,0.239,0.262,0.42,0.52,0.42c0.385,0,0.613-0.321,0.613-0.806c0-0.455-0.205-0.8-0.602-0.8
			c-0.252,0-0.474,0.187-0.531,0.449c-0.012,0.047-0.018,0.105-0.018,0.158V195.94z"/>
		<path fill="#FFFFFF" stroke="#000000" stroke-width="0.1" d="M355.091,193.231h2.399v0.73h-1.513v0.898h1.413v0.725h-1.413v1.582
			h-0.887V193.231z"/>
	</g>
	<g>
		<path fill="#FFFFFF" stroke="#000000" stroke-width="0.1" d="M259.403,239.155c0.228-0.018,0.414-0.07,0.525-0.187
			c0.129-0.135,0.176-0.362,0.176-0.929v-2.295h0.887v2.511c0,0.619-0.135,0.999-0.402,1.244c-0.264,0.239-0.678,0.35-1.098,0.35
			L259.403,239.155z M260.536,235.372c-0.298,0-0.49-0.211-0.49-0.474c0-0.269,0.198-0.473,0.502-0.473
			c0.303,0,0.49,0.204,0.496,0.473c0,0.263-0.193,0.474-0.502,0.474H260.536z"/>
		<path fill="#FFFFFF" stroke="#000000" stroke-width="0.1" d="M264.378,237.683c0,0.374,0.012,0.678,0.023,0.917h-0.771
			l-0.04-0.403h-0.018c-0.11,0.176-0.38,0.468-0.894,0.468c-0.584,0-1.004-0.362-1.004-1.244v-1.676h0.887v1.536
			c0,0.414,0.135,0.665,0.45,0.665c0.245,0,0.392-0.169,0.444-0.31c0.022-0.052,0.034-0.116,0.034-0.192v-1.699h0.888V237.683z"/>
		<path fill="#FFFFFF" stroke="#000000" stroke-width="0.1" d="M265.09,236.656c0-0.356-0.012-0.654-0.022-0.911h0.752l0.035,0.392
			h0.018c0.123-0.187,0.38-0.455,0.864-0.455c0.374,0,0.66,0.192,0.782,0.49h0.012c0.111-0.152,0.234-0.269,0.374-0.351
			c0.157-0.088,0.333-0.14,0.543-0.14c0.549,0,0.964,0.385,0.964,1.237v1.682h-0.865v-1.547c0-0.415-0.134-0.654-0.42-0.654
			c-0.21,0-0.35,0.14-0.414,0.31c-0.018,0.064-0.029,0.151-0.029,0.222v1.67h-0.864V237c0-0.356-0.128-0.602-0.415-0.602
			c-0.227,0-0.361,0.175-0.414,0.315c-0.029,0.07-0.035,0.151-0.035,0.228v1.658h-0.864V236.656z"/>
		<path fill="#FFFFFF" stroke="#000000" stroke-width="0.1" d="M270.11,236.703c0-0.374-0.011-0.689-0.022-0.958h0.771l0.041,0.397
			h0.012c0.21-0.298,0.537-0.461,0.951-0.461c0.625,0,1.186,0.543,1.186,1.453c0,1.04-0.66,1.53-1.296,1.53
			c-0.345,0-0.613-0.141-0.741-0.327h-0.012v1.419h-0.889V236.703z M270.999,237.374c0,0.07,0.006,0.129,0.018,0.188
			c0.058,0.239,0.262,0.42,0.52,0.42c0.385,0,0.613-0.321,0.613-0.806c0-0.455-0.205-0.8-0.602-0.8
			c-0.252,0-0.474,0.187-0.531,0.449c-0.012,0.047-0.018,0.105-0.018,0.158V237.374z"/>
		<path fill="#FFFFFF" stroke="#000000" stroke-width="0.1" d="M274.304,237.45c0.029,0.374,0.391,0.549,0.806,0.549
			c0.304,0,0.549-0.041,0.788-0.122l0.117,0.601c-0.293,0.123-0.648,0.182-1.033,0.182c-0.97,0-1.524-0.561-1.524-1.46
			c0-0.724,0.455-1.523,1.442-1.523c0.922,0,1.272,0.718,1.272,1.424c0,0.152-0.018,0.286-0.029,0.356L274.304,237.45z
			 M275.349,236.842c0-0.21-0.094-0.578-0.496-0.578c-0.38,0-0.531,0.345-0.555,0.578H275.349z"/>
		<path fill="#FFFFFF" stroke="#000000" stroke-width="0.1" d="M276.708,236.685c0-0.421-0.006-0.695-0.022-0.94h0.759l0.035,0.531
			h0.023c0.146-0.42,0.49-0.595,0.771-0.595c0.081,0,0.122,0.006,0.187,0.017v0.835c-0.076-0.011-0.146-0.022-0.245-0.022
			c-0.327,0-0.549,0.169-0.606,0.449c-0.012,0.059-0.018,0.122-0.018,0.198v1.442h-0.889L276.708,236.685z"/>
	</g>
	<g>
		<rect x="157.986" y="80.696" fill="none" stroke="#ED1C24" stroke-width="2" width="14.172" height="34.016"/>
		<rect x="172.158" y="80.696" fill="none" stroke="#ED1C24" stroke-width="2" width="8.504" height="34.016"/>
		<rect x="157.986" y="83.531" fill="none" stroke="#ED1C24" stroke-width="2" width="14.172" height="28.346"/>
		<rect x="157.986" y="90.617" fill="none" stroke="#ED1C24" stroke-width="2" width="14.172" height="14.174"/>
		<rect x="148.064" y="80.696" stroke="#ED1C24" stroke-width="2" width="32.598" height="34.016"/>
	</g>
	<line fill="none" stroke="#ED1C24" stroke-width="2" x1="72.859" y1="83.247" x2="72.859" y2="97.647"/>
	<line fill="none" stroke="#ED1C24" stroke-width="2" x1="83.659" y1="83.247" x2="83.659" y2="97.647"/>
	<line fill="none" stroke="#ED1C24" stroke-width="2" x1="94.459" y1="97.647" x2="94.459" y2="112.046"/>
	<line fill="none" stroke="#ED1C24" stroke-width="2" x1="105.26" y1="90.446" x2="105.26" y2="104.845"/>
	<line fill="none" stroke="#ED1C24" stroke-width="2" x1="62.059" y1="97.647" x2="62.059" y2="83.247"/>
	<line fill="none" stroke="#ED1C24" stroke-width="2" x1="119.662" y1="104.846" x2="119.662" y2="90.446"/>
	<line fill="none" stroke="#ED1C24" stroke-width="2" x1="116.059" y1="97.647" x2="119.662" y2="97.647"/>
	<line fill="none" stroke="#ED1C24" stroke-width="2" x1="116.061" y1="119.247" x2="137.662" y2="119.247"/>
	<line fill="none" stroke="#ED1C24" stroke-width="2" x1="130.429" y1="105.191" x2="130.461" y2="90.446"/>
	<line fill="none" stroke="#ED1C24" stroke-width="2" x1="141.262" y1="97.647" x2="141.262" y2="83.247"/>
	<line fill="none" stroke="#ED1C24" stroke-width="2" x1="155.661" y1="122.845" x2="170.062" y2="122.845"/>
	<line fill="none" stroke="#ED1C24" stroke-width="2" x1="155.661" y1="72.446" x2="170.062" y2="72.446"/>
	<rect x="60.259" y="85.046" fill="#FFFDB3" width="3.6" height="10.8"/>
	<g>
		<path fill="#FFFFFF" stroke="#000000" stroke-width="0.1" d="M60.437,88.664c0.132-0.024,0.325-0.041,0.545-0.041
			c0.269,0,0.457,0.041,0.585,0.146c0.11,0.086,0.169,0.212,0.169,0.379c0,0.229-0.164,0.387-0.32,0.443v0.008
			c0.126,0.051,0.196,0.169,0.242,0.336c0.057,0.206,0.11,0.442,0.145,0.513h-0.419c-0.027-0.051-0.073-0.199-0.124-0.422
			c-0.051-0.229-0.129-0.287-0.298-0.29h-0.121v0.712h-0.406V88.664z M60.842,89.44h0.161c0.204,0,0.325-0.103,0.325-0.261
			c0-0.164-0.113-0.25-0.301-0.25c-0.099,0-0.156,0.005-0.185,0.014V89.44z"/>
		<path fill="#FFFFFF" stroke="#000000" stroke-width="0.1" d="M62.038,90.046c0.072,0.04,0.239,0.107,0.405,0.107
			c0.212,0,0.32-0.102,0.32-0.23c0-0.175-0.172-0.253-0.349-0.253h-0.167v-0.293h0.158c0.137,0,0.309-0.054,0.309-0.201
			c0-0.104-0.083-0.183-0.258-0.183c-0.143,0-0.293,0.062-0.363,0.104l-0.083-0.295c0.104-0.067,0.312-0.132,0.54-0.132
			c0.371,0,0.578,0.196,0.578,0.435c0,0.186-0.104,0.334-0.32,0.406v0.005c0.21,0.038,0.379,0.196,0.379,0.428
			c0,0.306-0.271,0.531-0.714,0.531c-0.226,0-0.417-0.059-0.519-0.121L62.038,90.046z"/>
	</g>
	<rect x="71.059" y="85.046" fill="#FFFDB3" width="3.6" height="10.8"/>
	<g>
		<path fill="#FFFFFF" stroke="#000000" stroke-width="0.1" d="M71.236,88.664c0.132-0.024,0.325-0.041,0.545-0.041
			c0.269,0,0.457,0.041,0.585,0.146c0.11,0.086,0.169,0.212,0.169,0.379c0,0.229-0.164,0.387-0.32,0.443v0.008
			c0.126,0.051,0.196,0.169,0.242,0.336c0.057,0.206,0.11,0.442,0.145,0.513h-0.419c-0.027-0.051-0.073-0.199-0.124-0.422
			c-0.051-0.229-0.129-0.287-0.298-0.29h-0.121v0.712h-0.406V88.664z M71.642,89.44h0.161c0.204,0,0.325-0.103,0.325-0.261
			c0-0.164-0.113-0.25-0.301-0.25c-0.099,0-0.156,0.005-0.185,0.014V89.44z"/>
		<path fill="#FFFFFF" stroke="#000000" stroke-width="0.1" d="M72.768,90.447V90.2l0.223-0.201c0.384-0.344,0.569-0.54,0.572-0.744
			c0-0.143-0.083-0.256-0.285-0.256c-0.15,0-0.282,0.075-0.374,0.143l-0.115-0.29c0.129-0.1,0.335-0.18,0.569-0.18
			c0.397,0,0.612,0.23,0.612,0.548c0,0.293-0.209,0.526-0.465,0.752l-0.161,0.135v0.005h0.661v0.336H72.768z"/>
	</g>
	<ellipse fill="#FFCE00" cx="83.659" cy="90.446" rx="1.8" ry="5.399"/>
	<g>
		<path fill="#FFFFFF" stroke="#000000" stroke-width="0.1" d="M83.267,90.401c-0.068,0.032-0.229,0.072-0.432,0.072
			c-0.585,0-0.887-0.366-0.887-0.852c0-0.578,0.412-0.897,0.925-0.897c0.198,0,0.349,0.041,0.417,0.076l-0.081,0.301
			c-0.075-0.032-0.183-0.063-0.321-0.063c-0.302,0-0.538,0.184-0.538,0.563c0,0.34,0.201,0.554,0.541,0.554
			c0.118,0,0.244-0.023,0.322-0.056L83.267,90.401z"/>
		<path fill="#FFFFFF" stroke="#000000" stroke-width="0.1" d="M83.462,90.446v-0.231l0.208-0.188
			c0.359-0.321,0.533-0.505,0.535-0.695c0-0.134-0.078-0.239-0.266-0.239c-0.141,0-0.264,0.07-0.349,0.134l-0.108-0.271
			c0.121-0.094,0.314-0.169,0.533-0.169c0.372,0,0.573,0.217,0.573,0.513c0,0.274-0.196,0.492-0.435,0.704l-0.15,0.125v0.005h0.618
			v0.314H83.462z"/>
	</g>
	<rect x="92.658" y="99.447" fill="#FFFDB3" width="3.601" height="10.8"/>
	<g>
		<path fill="#FFFFFF" stroke="#000000" stroke-width="0.1" d="M92.836,103.064c0.132-0.024,0.325-0.041,0.545-0.041
			c0.269,0,0.457,0.041,0.585,0.146c0.11,0.086,0.169,0.212,0.169,0.379c0,0.229-0.164,0.387-0.32,0.443v0.008
			c0.126,0.051,0.196,0.169,0.242,0.336c0.057,0.206,0.11,0.442,0.145,0.513h-0.419c-0.027-0.051-0.073-0.199-0.124-0.422
			c-0.051-0.229-0.129-0.287-0.298-0.29h-0.121v0.712h-0.406V103.064z M93.242,103.84h0.161c0.204,0,0.325-0.103,0.325-0.261
			c0-0.164-0.113-0.25-0.301-0.25c-0.099,0-0.156,0.005-0.185,0.014V103.84z"/>
		<path fill="#FFFFFF" stroke="#000000" stroke-width="0.1" d="M94.886,103.463H94.88l-0.333,0.159l-0.067-0.307l0.464-0.215h0.336
			v1.746h-0.395V103.463z"/>
	</g>
	<ellipse fill="#FFCE00" cx="105.259" cy="97.646" rx="1.801" ry="5.399"/>
	<g>
		<path fill="#FFFFFF" stroke="#000000" stroke-width="0.1" d="M104.866,97.601c-0.067,0.032-0.229,0.072-0.432,0.072
			c-0.586,0-0.887-0.366-0.887-0.852c0-0.578,0.412-0.897,0.924-0.897c0.199,0,0.35,0.041,0.418,0.076l-0.081,0.301
			c-0.075-0.032-0.183-0.063-0.321-0.063c-0.302,0-0.538,0.184-0.538,0.563c0,0.34,0.201,0.554,0.54,0.554
			c0.119,0,0.244-0.023,0.322-0.056L104.866,97.601z"/>
		<path fill="#FFFFFF" stroke="#000000" stroke-width="0.1" d="M105.128,97.272c0.068,0.037,0.224,0.101,0.379,0.101
			c0.199,0,0.299-0.096,0.299-0.217c0-0.163-0.16-0.236-0.326-0.236h-0.156v-0.273h0.148c0.129,0,0.289-0.051,0.289-0.188
			c0-0.098-0.078-0.171-0.24-0.171c-0.134,0-0.274,0.058-0.34,0.098l-0.078-0.276c0.098-0.063,0.292-0.123,0.506-0.123
			c0.346,0,0.539,0.184,0.539,0.407c0,0.174-0.098,0.312-0.299,0.38v0.005c0.196,0.035,0.355,0.184,0.355,0.399
			c0,0.286-0.254,0.497-0.669,0.497c-0.212,0-0.39-0.055-0.485-0.112L105.128,97.272z"/>
	</g>
	<g>
		<g>
			<path d="M121.46,92.53c-0.565-0.201-1.166-0.331-1.801-0.331c-2.982,0-5.398,2.416-5.398,5.398s2.416,5.4,5.398,5.4
				c0.635,0,1.235-0.13,1.801-0.331V92.53z"/>
		</g>
		<g>
			<path fill="none" stroke="#FFFFFF" stroke-width="0.5" d="M121.46,92.53c-0.565-0.201-1.166-0.331-1.801-0.331
				c-2.982,0-5.398,2.416-5.398,5.398s2.416,5.4,5.398,5.4c0.635,0,1.235-0.13,1.801-0.331V92.53z"/>
		</g>
	</g>
	<g>
		<path fill="#FFFFFF" stroke="#000000" stroke-width="0.1" d="M119.406,97.268h-0.643v-0.452h1.828v0.452h-0.649v1.927h-0.536
			V97.268z"/>
	</g>
	<g>
		<path fill="#FFFFFF" stroke="#000000" stroke-width="0.1" d="M120.138,93.517c0.013,0.172,0.18,0.253,0.37,0.253
			c0.14,0,0.253-0.02,0.362-0.057l0.054,0.276c-0.134,0.057-0.298,0.084-0.475,0.084c-0.446,0-0.701-0.259-0.701-0.672
			c0-0.333,0.209-0.701,0.663-0.701c0.425,0,0.586,0.33,0.586,0.655c0,0.07-0.009,0.132-0.014,0.164L120.138,93.517z
			 M120.618,93.238c0-0.097-0.043-0.266-0.229-0.266c-0.175,0-0.244,0.158-0.255,0.266H120.618z"/>
	</g>
	<g>
		<path fill="#FFFFFF" stroke="#000000" stroke-width="0.1" d="M120.809,102.214c-0.072,0.035-0.209,0.062-0.365,0.062
			c-0.425,0-0.695-0.261-0.695-0.674c0-0.384,0.263-0.698,0.752-0.698c0.107,0,0.226,0.019,0.312,0.051l-0.064,0.304
			c-0.049-0.021-0.121-0.04-0.229-0.04c-0.215,0-0.354,0.152-0.352,0.367c0,0.242,0.161,0.371,0.359,0.371
			c0.097,0,0.172-0.017,0.234-0.043L120.809,102.214z"/>
	</g>
	<g>
		<path fill="#FFFFFF" stroke="#000000" stroke-width="0.1" d="M115.423,96.739h0.408v0.749h0.005
			c0.078-0.112,0.215-0.185,0.397-0.185c0.314,0,0.543,0.26,0.54,0.663c0,0.473-0.298,0.709-0.599,0.709
			c-0.153,0-0.304-0.057-0.395-0.212h-0.006l-0.016,0.183h-0.347c0.005-0.086,0.011-0.244,0.011-0.393V96.739z M115.831,98.087
			c0,0.026,0.003,0.051,0.008,0.072c0.027,0.107,0.121,0.193,0.239,0.193c0.175,0,0.282-0.134,0.282-0.37
			c0-0.204-0.092-0.365-0.282-0.365c-0.11,0-0.212,0.083-0.239,0.201c-0.005,0.024-0.008,0.048-0.008,0.075V98.087z"/>
	</g>
	<g>
		<g>
			<path fill="#F7931D" d="M125.39,94.046c-0.201,0.565-0.331,1.166-0.331,1.801c0,2.982,2.418,5.4,5.4,5.4s5.398-2.418,5.398-5.4
				c0-0.635-0.13-1.235-0.331-1.801H125.39z"/>
		</g>
	</g>
	<g>
		<path fill="#FFFFFF" stroke="#000000" stroke-width="0.1" d="M128.766,96.79h-0.681v-0.479h1.936v0.479h-0.688v2.04h-0.567V96.79z
			"/>
		<path fill="#FFFFFF" stroke="#000000" stroke-width="0.1" d="M132.062,98.762c-0.102,0.049-0.341,0.108-0.643,0.108
			c-0.871,0-1.319-0.546-1.319-1.267c0-0.859,0.612-1.334,1.375-1.334c0.295,0,0.52,0.06,0.62,0.112l-0.119,0.448
			c-0.112-0.049-0.273-0.094-0.479-0.094c-0.448,0-0.8,0.273-0.8,0.837c0,0.505,0.299,0.822,0.804,0.822
			c0.176,0,0.362-0.033,0.478-0.082L132.062,98.762z"/>
	</g>
	<circle fill="#0071BC" cx="141.26" cy="90.447" r="5.399"/>
	<g>
		<path fill="#FFFFFF" stroke="#000000" stroke-width="0.1" d="M141.323,91.471c-0.085,0.041-0.288,0.092-0.545,0.092
			c-0.738,0-1.118-0.463-1.118-1.074c0-0.729,0.52-1.132,1.166-1.132c0.25,0,0.44,0.051,0.525,0.096l-0.101,0.38
			c-0.096-0.041-0.231-0.079-0.406-0.079c-0.38,0-0.678,0.231-0.678,0.71c0,0.428,0.253,0.697,0.681,0.697
			c0.149,0,0.308-0.029,0.406-0.07L141.323,91.471z"/>
		<path fill="#FFFFFF" stroke="#000000" stroke-width="0.1" d="M142.183,89.896h-0.007l-0.393,0.187l-0.079-0.361l0.548-0.253h0.396
			v2.06h-0.466V89.896z"/>
	</g>
	
		<rect x="119.794" y="109.819" transform="matrix(0.9999 -0.0147 0.0147 0.9999 -1.7325 1.8734)" fill="#FFC20E" stroke="#000000" width="13.974" height="18.326"/>
	<g>
		<path fill="#FFFFFF" stroke="#000000" stroke-width="0.1" d="M125.573,120.974c-0.105,0.051-0.356,0.113-0.675,0.113
			c-0.915,0-1.386-0.573-1.386-1.331c0-0.902,0.644-1.401,1.444-1.401c0.311,0,0.546,0.063,0.652,0.118l-0.126,0.471
			c-0.118-0.051-0.287-0.098-0.503-0.098c-0.471,0-0.84,0.286-0.84,0.879c0,0.53,0.314,0.864,0.844,0.864
			c0.185,0,0.381-0.036,0.503-0.087L125.573,120.974z"/>
		<path fill="#FFFFFF" stroke="#000000" stroke-width="0.1" d="M126.752,121.087c-0.562,0-0.993-0.369-0.993-0.989
			s0.408-1.017,1.028-1.017c0.585,0,0.978,0.404,0.978,0.985c0,0.699-0.498,1.021-1.009,1.021H126.752z M126.764,120.66
			c0.235,0,0.381-0.231,0.381-0.577c0-0.282-0.11-0.573-0.381-0.573c-0.283,0-0.393,0.291-0.393,0.577
			c0,0.326,0.138,0.573,0.389,0.573H126.764z"/>
		<path fill="#FFFFFF" stroke="#000000" stroke-width="0.1" d="M128.428,118.874c-0.2,0-0.33-0.142-0.33-0.318
			c0-0.181,0.134-0.318,0.338-0.318s0.33,0.138,0.334,0.318c0,0.177-0.13,0.318-0.338,0.318H128.428z M128.133,121.044v-1.92h0.597
			v1.92H128.133z"/>
		<path fill="#FFFFFF" stroke="#000000" stroke-width="0.1" d="M129.209,118.257h0.597v2.787h-0.597V118.257z"/>
	</g>
	<rect x="157.459" y="70.646" fill="#FFFDB3" width="10.8" height="3.601"/>
	<g>
		<path fill="#FFFFFF" stroke="#000000" stroke-width="0.1" d="M160.708,71.708c0.131-0.024,0.324-0.041,0.545-0.041
			c0.269,0,0.457,0.041,0.586,0.146c0.109,0.086,0.169,0.212,0.169,0.379c0,0.229-0.164,0.387-0.319,0.443v0.008
			c0.126,0.051,0.195,0.169,0.241,0.336c0.057,0.206,0.11,0.442,0.146,0.513h-0.42c-0.026-0.051-0.072-0.199-0.123-0.422
			c-0.051-0.229-0.129-0.287-0.299-0.29h-0.12v0.712h-0.405V71.708z M161.113,72.485h0.161c0.204,0,0.324-0.103,0.324-0.261
			c0-0.164-0.112-0.25-0.301-0.25c-0.099,0-0.155,0.005-0.185,0.014V72.485z"/>
		<path fill="#FFFFFF" stroke="#000000" stroke-width="0.1" d="M162.958,73.492v-0.416h-0.773v-0.267l0.658-1.063h0.502v1.023h0.207
			v0.307h-0.207v0.416H162.958z M162.958,72.769v-0.387c0-0.104,0.006-0.212,0.012-0.325h-0.009
			c-0.056,0.113-0.104,0.215-0.163,0.325l-0.231,0.382l-0.003,0.005H162.958z"/>
	</g>
	<rect x="157.459" y="121.046" fill="#FFFDB3" width="10.8" height="3.601"/>
	<g>
		<path fill="#FFFFFF" stroke="#000000" stroke-width="0.1" d="M160.708,122.109c0.131-0.024,0.324-0.041,0.545-0.041
			c0.269,0,0.457,0.041,0.586,0.146c0.109,0.086,0.169,0.212,0.169,0.379c0,0.229-0.164,0.387-0.319,0.443v0.008
			c0.126,0.051,0.195,0.169,0.241,0.336c0.057,0.206,0.11,0.442,0.146,0.513h-0.42c-0.026-0.051-0.072-0.199-0.123-0.422
			c-0.051-0.229-0.129-0.287-0.299-0.29h-0.12v0.712h-0.405V122.109z M161.113,122.885h0.161c0.204,0,0.324-0.103,0.324-0.261
			c0-0.164-0.112-0.25-0.301-0.25c-0.099,0-0.155,0.005-0.185,0.014V122.885z"/>
		<path fill="#FFFFFF" stroke="#000000" stroke-width="0.1" d="M163.401,122.482h-0.677l-0.038,0.266
			c0.038-0.003,0.07-0.005,0.113-0.005c0.166,0,0.338,0.037,0.459,0.126c0.133,0.089,0.213,0.233,0.213,0.44
			c0,0.325-0.279,0.612-0.75,0.612c-0.212,0-0.389-0.048-0.486-0.1l0.076-0.306c0.074,0.037,0.233,0.086,0.392,0.086
			c0.169,0,0.349-0.081,0.349-0.266c0-0.183-0.142-0.293-0.49-0.293c-0.098,0-0.164,0.005-0.234,0.016l0.113-0.913h0.961V122.482z"
			/>
	</g>
	<g>
		<path fill="#FFFFFF" stroke="#000000" stroke-width="0.1" d="M157.737,95.234c0.157,0.082,0.409,0.165,0.664,0.165
			c0.274,0,0.42-0.114,0.42-0.291c0-0.161-0.126-0.259-0.443-0.369c-0.44-0.157-0.73-0.4-0.73-0.789
			c0-0.451,0.381-0.793,1.001-0.793c0.303,0,0.519,0.059,0.676,0.134l-0.134,0.479c-0.103-0.051-0.295-0.125-0.55-0.125
			c-0.259,0-0.385,0.121-0.385,0.255c0,0.169,0.146,0.243,0.491,0.377c0.467,0.173,0.683,0.416,0.683,0.793
			c0,0.443-0.338,0.82-1.063,0.82c-0.303,0-0.601-0.082-0.75-0.165L157.737,95.234z"/>
		<path fill="#FFFFFF" stroke="#000000" stroke-width="0.1" d="M160.467,93.404v0.522h0.428v0.439h-0.428v0.699
			c0,0.231,0.059,0.338,0.235,0.338c0.082,0,0.122-0.004,0.177-0.016l0.004,0.451c-0.075,0.027-0.22,0.051-0.385,0.051
			c-0.192,0-0.354-0.066-0.451-0.165c-0.11-0.113-0.165-0.298-0.165-0.569v-0.789h-0.256v-0.439h0.256v-0.361L160.467,93.404z"/>
		<path fill="#FFFFFF" stroke="#000000" stroke-width="0.1" d="M161.68,95.073c0.02,0.251,0.263,0.369,0.541,0.369
			c0.204,0,0.369-0.027,0.53-0.083l0.079,0.405c-0.196,0.082-0.437,0.121-0.695,0.121c-0.651,0-1.024-0.377-1.024-0.981
			c0-0.486,0.306-1.024,0.97-1.024c0.62,0,0.855,0.482,0.855,0.958c0,0.102-0.012,0.192-0.02,0.239L161.68,95.073z M162.382,94.665
			c0-0.142-0.063-0.389-0.333-0.389c-0.256,0-0.357,0.231-0.373,0.389H162.382z"/>
		<path fill="#FFFFFF" stroke="#000000" stroke-width="0.1" d="M163.297,94.558c0-0.282-0.004-0.467-0.016-0.632h0.511l0.023,0.357
			h0.016c0.099-0.283,0.33-0.4,0.519-0.4c0.055,0,0.082,0.004,0.125,0.012v0.562c-0.051-0.008-0.098-0.016-0.164-0.016
			c-0.221,0-0.369,0.113-0.409,0.302c-0.008,0.039-0.012,0.083-0.012,0.134v0.97h-0.597L163.297,94.558z"/>
		<path fill="#FFFFFF" stroke="#000000" stroke-width="0.1" d="M165.218,95.073c0.02,0.251,0.263,0.369,0.541,0.369
			c0.205,0,0.369-0.027,0.53-0.083l0.079,0.405c-0.196,0.082-0.437,0.121-0.695,0.121c-0.651,0-1.024-0.377-1.024-0.981
			c0-0.486,0.306-1.024,0.97-1.024c0.62,0,0.855,0.482,0.855,0.958c0,0.102-0.012,0.192-0.02,0.239L165.218,95.073z M165.92,94.665
			c0-0.142-0.063-0.389-0.333-0.389c-0.256,0-0.357,0.231-0.373,0.389H165.92z"/>
		<path fill="#FFFFFF" stroke="#000000" stroke-width="0.1" d="M167.714,95.889c-0.562,0-0.993-0.369-0.993-0.989
			s0.408-1.017,1.028-1.017c0.585,0,0.978,0.404,0.978,0.985c0,0.699-0.499,1.021-1.009,1.021H167.714z M167.726,95.461
			c0.235,0,0.381-0.231,0.381-0.577c0-0.282-0.11-0.573-0.381-0.573c-0.283,0-0.393,0.291-0.393,0.577
			c0,0.326,0.138,0.573,0.389,0.573H167.726z"/>
		<path fill="#FFFFFF" stroke="#000000" stroke-width="0.1" d="M157.737,99.945c0.157,0.082,0.409,0.165,0.664,0.165
			c0.274,0,0.42-0.114,0.42-0.291c0-0.161-0.126-0.259-0.443-0.369c-0.44-0.157-0.73-0.4-0.73-0.789
			c0-0.451,0.381-0.793,1.001-0.793c0.303,0,0.519,0.059,0.676,0.134l-0.134,0.479c-0.103-0.051-0.295-0.125-0.55-0.125
			c-0.259,0-0.385,0.121-0.385,0.255c0,0.169,0.146,0.243,0.491,0.377c0.467,0.173,0.683,0.416,0.683,0.793
			c0,0.443-0.338,0.82-1.063,0.82c-0.303,0-0.601-0.082-0.75-0.165L157.737,99.945z"/>
		<path fill="#FFFFFF" stroke="#000000" stroke-width="0.1" d="M160.718,100.6c-0.562,0-0.993-0.369-0.993-0.989
			s0.408-1.017,1.028-1.017c0.585,0,0.978,0.404,0.978,0.985c0,0.699-0.499,1.021-1.009,1.021H160.718z M160.729,100.172
			c0.235,0,0.381-0.231,0.381-0.577c0-0.282-0.11-0.573-0.381-0.573c-0.283,0-0.393,0.291-0.393,0.577
			c0,0.326,0.138,0.573,0.389,0.573H160.729z"/>
		<path fill="#FFFFFF" stroke="#000000" stroke-width="0.1" d="M163.553,100.51c-0.106,0.051-0.307,0.09-0.534,0.09
			c-0.62,0-1.017-0.381-1.017-0.985c0-0.562,0.385-1.021,1.099-1.021c0.157,0,0.33,0.027,0.456,0.074l-0.095,0.443
			c-0.07-0.031-0.177-0.059-0.333-0.059c-0.314,0-0.519,0.224-0.515,0.538c0,0.354,0.235,0.542,0.526,0.542
			c0.141,0,0.251-0.023,0.341-0.063L163.553,100.51z"/>
		<path fill="#FFFFFF" stroke="#000000" stroke-width="0.1" d="M164.479,99.45h0.008c0.044-0.082,0.091-0.161,0.138-0.231
			l0.389-0.581h0.719l-0.688,0.777l0.785,1.143h-0.733l-0.468-0.789l-0.149,0.192v0.597h-0.597V97.77h0.597V99.45z"/>
		<path fill="#FFFFFF" stroke="#000000" stroke-width="0.1" d="M166.423,99.784c0.02,0.251,0.263,0.369,0.541,0.369
			c0.205,0,0.369-0.027,0.53-0.083l0.079,0.405c-0.196,0.082-0.437,0.121-0.695,0.121c-0.651,0-1.024-0.377-1.024-0.981
			c0-0.486,0.306-1.024,0.97-1.024c0.62,0,0.855,0.482,0.855,0.958c0,0.102-0.012,0.192-0.02,0.239L166.423,99.784z M167.125,99.375
			c0-0.142-0.063-0.389-0.333-0.389c-0.256,0-0.357,0.231-0.373,0.389H167.125z"/>
		<path fill="#FFFFFF" stroke="#000000" stroke-width="0.1" d="M168.703,98.115v0.522h0.428v0.439h-0.428v0.699
			c0,0.231,0.059,0.338,0.235,0.338c0.082,0,0.122-0.004,0.177-0.016l0.004,0.451c-0.075,0.027-0.22,0.051-0.385,0.051
			c-0.192,0-0.354-0.066-0.451-0.165c-0.11-0.113-0.165-0.298-0.165-0.569v-0.789h-0.256v-0.439h0.256v-0.361L168.703,98.115z"/>
	</g>
	<line fill="none" stroke="#ED1C24" stroke-width="2" x1="62.059" y1="112.046" x2="76.205" y2="112.046"/>
	<line fill="none" stroke="#ED1C24" stroke-width="2" x1="85.459" y1="112.045" x2="94.459" y2="83.246"/>
	<ellipse fill="#FFCE00" cx="69.259" cy="112.047" rx="5.399" ry="1.8"/>
	<g>
		<path fill="#FFFFFF" stroke="#000000" stroke-width="0.1" d="M68.866,112.001c-0.068,0.032-0.229,0.072-0.432,0.072
			c-0.585,0-0.887-0.366-0.887-0.852c0-0.578,0.412-0.897,0.925-0.897c0.198,0,0.349,0.041,0.417,0.076l-0.081,0.301
			c-0.075-0.032-0.183-0.063-0.321-0.063c-0.302,0-0.538,0.184-0.538,0.563c0,0.34,0.201,0.554,0.541,0.554
			c0.118,0,0.244-0.023,0.322-0.056L68.866,112.001z"/>
		<path fill="#FFFFFF" stroke="#000000" stroke-width="0.1" d="M69.735,112.046v-0.39h-0.724v-0.249l0.616-0.994h0.47v0.957h0.194
			v0.286h-0.194v0.39H69.735z M69.735,111.371v-0.362c0-0.098,0.005-0.198,0.01-0.304h-0.007c-0.053,0.105-0.098,0.201-0.153,0.304
			l-0.216,0.357l-0.002,0.005H69.735z"/>
	</g>
</g>
<g id="Layer_3">
	<line fill="none" stroke="#000000" stroke-width="2" x1="94.458" y1="32.845" x2="137.66" y2="32.845"/>
	<circle cx="72.857" cy="32.845" r="3.6"/>
	<circle cx="94.459" cy="18.444" r="3.6"/>
	<circle cx="62.059" cy="47.245" r="3.6"/>
	<circle cx="62.058" cy="32.844" r="3.6"/>
	<circle cx="62.059" cy="18.446" r="3.6"/>
	<circle cx="105.26" cy="25.645" r="3.6"/>
	<circle cx="94.459" cy="47.246" r="3.6"/>
	<circle cx="83.657" cy="32.845" r="3.6"/>
	<circle cx="72.859" cy="47.245" r="3.6"/>
	<circle cx="83.659" cy="47.245" r="3.6"/>
	<circle cx="94.457" cy="32.845" r="3.6"/>
	<circle cx="105.26" cy="40.046" r="3.6"/>
	<circle cx="112.459" cy="32.845" r="3.601"/>
	<line fill="none" stroke="#000000" stroke-width="2" x1="72.857" y1="32.845" x2="94.457" y2="32.845"/>
	<circle cx="119.66" cy="40.046" r="3.6"/>
	<circle cx="119.66" cy="25.646" r="3.601"/>
	<circle cx="116.711" cy="10.594" r="4.251"/>
	<circle cx="137.008" cy="10.593" r="4.252"/>
	<circle cx="130.461" cy="25.646" r="4.252"/>
	<circle cx="130.459" cy="40.045" r="4.252"/>
	<circle cx="141.262" cy="32.845" r="3.6"/>
	<circle cx="141.26" cy="47.245" r="3.6"/>
	<circle cx="171.989" cy="39.661" r="4.252"/>
	<circle cx="44.059" cy="40.045" r="3.6"/>
	<circle cx="171.986" cy="18.539" r="4.252"/>
	<circle cx="44.058" cy="25.646" r="3.6"/>
	<circle cx="171.955" cy="46.913" r="4.252"/>
	<polyline fill="none" stroke="#000000" stroke-width="2" points="130.459,40.046 123.26,47.245 51.259,47.245 	"/>
	<path fill="none" stroke="#000000" stroke-width="2" d="M130.459,40.046"/>
	<line fill="none" stroke="#000000" stroke-width="2" x1="173.659" y1="47.247" x2="170.06" y2="58.046"/>
	<polyline fill="none" stroke="#000000" stroke-width="2" points="44.059,40.045 54.859,40.045 62.057,32.845 	"/>
	<g>
		<line fill="none" stroke="#000000" stroke-width="0.75" x1="38.215" y1="31.845" x2="38.215" y2="37.762"/>
		<line fill="none" stroke="#000000" stroke-width="0.75" x1="36.109" y1="32.447" x2="40.171" y2="32.447"/>
		<line fill="none" stroke="#000000" stroke-width="0.75" x1="36.711" y1="33.65" x2="39.67" y2="33.65"/>
		<line fill="none" stroke="#000000" stroke-width="0.75" x1="37.213" y1="35.004" x2="39.118" y2="35.004"/>
	</g>
	<polyline fill="none" stroke="#000000" stroke-width="2" points="51.259,25.646 87.26,25.646 94.46,18.445 	"/>
	<path fill="none" stroke="#000000" stroke-width="2" d="M51.259,32.845"/>
	<circle cx="172.218" cy="25.5" r="4.252"/>
	<line fill="none" stroke="#000000" stroke-width="2" x1="44.059" y1="25.646" x2="51.259" y2="25.646"/>
	<circle cx="44.058" cy="54.446" r="3.6"/>
	<path fill="none" stroke="#000000" stroke-width="2" d="M51.259,25.646"/>
	<path fill="none" stroke="#000000" stroke-width="2" d="M119.66,40.046"/>
	<polyline fill="none" stroke="#000000" stroke-width="2" points="62.057,32.845 69.259,40.045 119.66,40.046 	"/>
	<line fill="none" stroke="#000000" stroke-width="2" x1="119.66" y1="25.646" x2="130.459" y2="25.646"/>
	<polyline fill="none" stroke="#000000" stroke-width="2" points="105.861,25.576 116.66,25.576 119.66,25.646 	"/>
	<path fill="none" stroke="#000000" stroke-width="2" d="M51.259,47.245"/>
	<path fill="none" stroke="#000000" stroke-width="2" d="M44.059,54.445"/>
	<polyline fill="none" stroke="#000000" stroke-width="2" points="130.459,25.646 137.66,18.445 137.66,11.245 	"/>
	<path fill="none" stroke="#000000" stroke-width="2" d="M144.561,47.245"/>
	<path fill="none" stroke="#000000" stroke-width="2" d="M157.509,10.075"/>
	<circle cx="321.26" cy="176.693" r="3.601"/>
	<line fill="none" stroke="#000000" stroke-width="2" x1="321.259" y1="176.693" x2="328.459" y2="169.493"/>
	<circle cx="306.86" cy="176.694" r="3.6"/>
	<circle cx="296.062" cy="176.694" r="3.6"/>
	<line fill="none" stroke="#000000" stroke-width="2" x1="296.06" y1="176.693" x2="306.858" y2="176.693"/>
	<circle cx="281.661" cy="176.694" r="3.6"/>
	<circle cx="270.86" cy="180.294" r="3.6"/>
	<circle cx="260.06" cy="180.294" r="3.6"/>
	<polyline fill="none" stroke="#000000" stroke-width="2" points="260.06,180.293 278.06,180.293 281.659,176.693 	"/>
	<circle cx="245.659" cy="179.896" r="3.601"/>
	<circle cx="242.06" cy="140.296" r="3.6"/>
	<line fill="none" stroke="#000000" stroke-width="2" x1="249.259" y1="147.497" x2="242.06" y2="140.295"/>
	<circle cx="256.459" cy="140.295" r="3.6"/>
	<circle cx="270.858" cy="140.295" r="3.6"/>
	<line fill="none" stroke="#000000" stroke-width="2" x1="256.459" y1="140.295" x2="270.858" y2="140.295"/>
	<g>
		<path d="M253.379,181.275c-0.47,0.024-1.04,0.056-1.455,0.056v0.012c0.39,0.119,0.815,0.254,1.28,0.424l1.635,0.596v0.33
			l-1.605,0.55c-0.479,0.159-0.909,0.29-1.31,0.386v0.011c0.42,0.01,0.979,0.034,1.49,0.063l1.444,0.09v0.416l-3.369-0.235v-0.556
			l1.63-0.574c0.415-0.141,0.784-0.25,1.135-0.34v-0.011c-0.34-0.091-0.71-0.21-1.135-0.36l-1.63-0.6v-0.555l3.369-0.211v0.431
			L253.379,181.275z"/>
		<rect x="251.489" y="179.661" width="3.369" height="0.44"/>
		<path d="M254.754,176.549c0.08,0.156,0.16,0.48,0.16,0.892c0,0.949-0.601,1.66-1.71,1.66c-1.061,0-1.77-0.716-1.77-1.761
			c0-0.416,0.09-0.686,0.149-0.801l0.354,0.11c-0.08,0.159-0.14,0.396-0.14,0.675c0,0.79,0.505,1.314,1.39,1.314
			c0.83,0,1.355-0.475,1.355-1.289c0-0.271-0.055-0.541-0.141-0.715L254.754,176.549z"/>
	</g>
	<line fill="none" stroke="#000000" stroke-width="2" x1="54.859" y1="25.646" x2="62.059" y2="18.446"/>
	<polyline fill="none" stroke="#000000" stroke-width="2" points="245.659,179.895 252.858,172.295 252.858,169.095 	"/>
	<line fill="none" stroke="#000000" stroke-width="2" x1="170.06" y1="7.646" x2="173.659" y2="18.447"/>
	<circle cx="170.058" cy="58.046" r="3.6"/>
	<circle cx="170.059" cy="7.646" r="3.6"/>
	<circle cx="155.659" cy="58.046" r="3.601"/>
	<circle cx="155.657" cy="7.646" r="3.6"/>
	<circle cx="157.826" cy="32.776" r="4.252"/>
	<polyline fill="none" stroke="#000000" stroke-width="2" points="155.659,7.646 165.192,14.847 165.192,50.847 155.659,58.046 	"/>
	<circle cx="158.036" cy="18.519" r="4.252"/>
	<circle cx="157.617" cy="46.746" r="4.252"/>
	<g>
		<path d="M37.529,10.548V6.672h1.024l0.805,1.42c0.23,0.408,0.454,0.891,0.632,1.329h0.012c-0.052-0.512-0.069-1.035-0.069-1.622
			V6.672h0.805v3.876h-0.92L38.99,9.053c-0.23-0.42-0.489-0.915-0.673-1.369h-0.023c0.029,0.518,0.04,1.064,0.04,1.696v1.167H37.529
			z"/>
		<path d="M41.9,7.368c-0.293,0-0.483-0.207-0.483-0.466c0-0.265,0.196-0.466,0.495-0.466c0.299,0,0.483,0.201,0.489,0.466
			c0,0.259-0.189,0.466-0.494,0.466H41.9z M41.469,10.548V7.736h0.875v2.812H41.469z"/>
		<path d="M43.147,10.548V8.38h-0.374V7.736h0.374V7.627c0-0.339,0.104-0.713,0.351-0.943c0.224-0.207,0.523-0.282,0.782-0.282
			c0.189,0,0.339,0.029,0.46,0.058l-0.035,0.673c-0.075-0.023-0.167-0.04-0.282-0.04c-0.288,0-0.408,0.224-0.408,0.5v0.144h0.563
			V8.38h-0.558v2.168H43.147z"/>
		<path d="M46.069,6.971v0.765h0.626V8.38h-0.626v1.023c0,0.339,0.086,0.495,0.345,0.495c0.121,0,0.178-0.006,0.259-0.023
			l0.006,0.661c-0.109,0.041-0.322,0.075-0.563,0.075c-0.282,0-0.518-0.098-0.662-0.242c-0.161-0.167-0.241-0.437-0.241-0.834V8.38
			h-0.374V7.736h0.374V7.207L46.069,6.971z"/>
		<path d="M47.892,7.736l0.42,1.38c0.046,0.167,0.104,0.374,0.138,0.523h0.017c0.04-0.149,0.086-0.362,0.126-0.523l0.345-1.38h0.937
			l-0.655,1.852c-0.403,1.116-0.673,1.559-0.989,1.84c-0.299,0.265-0.621,0.362-0.845,0.385l-0.184-0.736
			c0.109-0.023,0.247-0.075,0.379-0.15c0.132-0.069,0.282-0.212,0.362-0.351c0.029-0.046,0.046-0.086,0.046-0.126
			c0-0.029-0.005-0.075-0.034-0.144l-1.035-2.57H47.892z"/>
		<path d="M50.244,8.633c0-0.351-0.011-0.644-0.023-0.897h0.742l0.034,0.385h0.018c0.121-0.184,0.374-0.449,0.851-0.449
			c0.368,0,0.65,0.19,0.771,0.483h0.012c0.109-0.149,0.23-0.264,0.368-0.345c0.155-0.086,0.328-0.138,0.535-0.138
			c0.541,0,0.949,0.379,0.949,1.219v1.656h-0.851V9.024c0-0.408-0.132-0.644-0.414-0.644c-0.207,0-0.345,0.138-0.408,0.305
			c-0.018,0.063-0.029,0.149-0.029,0.219v1.645h-0.851V8.973c0-0.351-0.126-0.592-0.409-0.592c-0.224,0-0.356,0.172-0.408,0.311
			c-0.029,0.069-0.034,0.149-0.034,0.224v1.633h-0.852V8.633z"/>
		<path d="M55.622,7.368c-0.293,0-0.483-0.207-0.483-0.466c0-0.265,0.196-0.466,0.495-0.466c0.299,0,0.483,0.201,0.489,0.466
			c0,0.259-0.189,0.466-0.494,0.466H55.622z M55.19,10.548V7.736h0.875v2.812H55.19z"/>
		<path d="M57.744,6.971v0.765h0.626V8.38h-0.626v1.023c0,0.339,0.086,0.495,0.345,0.495c0.121,0,0.178-0.006,0.259-0.023
			l0.006,0.661c-0.109,0.041-0.322,0.075-0.563,0.075c-0.282,0-0.518-0.098-0.662-0.242c-0.161-0.167-0.241-0.437-0.241-0.834V8.38
			h-0.374V7.736h0.374V7.207L57.744,6.971z"/>
		<path d="M59.854,6.971v0.765h0.626V8.38h-0.626v1.023c0,0.339,0.086,0.495,0.345,0.495c0.121,0,0.178-0.006,0.259-0.023
			l0.006,0.661c-0.109,0.041-0.322,0.075-0.563,0.075c-0.282,0-0.518-0.098-0.662-0.242c-0.161-0.167-0.241-0.437-0.241-0.834V8.38
			h-0.374V7.736h0.374V7.207L59.854,6.971z"/>
		<path d="M61.63,9.416c0.029,0.368,0.386,0.541,0.794,0.541c0.299,0,0.541-0.041,0.776-0.121l0.115,0.592
			c-0.288,0.121-0.638,0.178-1.018,0.178c-0.955,0-1.501-0.552-1.501-1.438c0-0.713,0.448-1.501,1.42-1.501
			c0.909,0,1.253,0.708,1.253,1.403c0,0.149-0.017,0.282-0.029,0.351L61.63,9.416z M62.66,8.817c0-0.207-0.092-0.569-0.489-0.569
			c-0.374,0-0.523,0.339-0.546,0.569H62.66z"/>
		<path d="M64,8.662c0-0.414-0.006-0.685-0.023-0.926h0.748l0.035,0.523h0.023c0.144-0.414,0.483-0.586,0.759-0.586
			c0.081,0,0.121,0.006,0.184,0.017v0.823C65.65,8.501,65.582,8.49,65.484,8.49c-0.322,0-0.541,0.167-0.598,0.442
			c-0.012,0.058-0.017,0.121-0.017,0.196v1.42h-0.875L64,8.662z"/>
		<path d="M67.991,7.736l0.38,1.305c0.069,0.236,0.115,0.46,0.161,0.685h0.018c0.046-0.23,0.092-0.443,0.155-0.685l0.362-1.305h0.92
			l-1.046,2.812h-0.875l-1.023-2.812H67.991z"/>
		<path d="M71.626,10.612c-0.966,0-1.392-0.869-1.397-1.927c0-1.087,0.454-1.938,1.42-1.938c0.995,0,1.392,0.891,1.392,1.915
			c0,1.15-0.466,1.95-1.409,1.95H71.626z M71.637,9.95c0.339,0,0.523-0.425,0.523-1.277c0-0.828-0.178-1.265-0.529-1.265
			c-0.328,0-0.535,0.42-0.535,1.265c-0.006,0.863,0.201,1.277,0.535,1.277H71.637z"/>
		<path d="M74.023,10.612c-0.293,0-0.506-0.225-0.506-0.529c0-0.316,0.213-0.535,0.518-0.535c0.299,0,0.506,0.212,0.512,0.535
			c0,0.305-0.207,0.529-0.518,0.529H74.023z"/>
		<path d="M74.973,10.548v-0.529l0.478-0.431c0.822-0.736,1.219-1.156,1.225-1.593c0-0.305-0.178-0.546-0.61-0.546
			c-0.322,0-0.604,0.161-0.799,0.305l-0.247-0.621c0.276-0.213,0.719-0.385,1.219-0.385c0.851,0,1.311,0.495,1.311,1.173
			c0,0.626-0.449,1.127-0.995,1.61l-0.345,0.288V9.83h1.415v0.719H74.973z"/>
		<path d="M78.314,9.691c0.155,0.086,0.512,0.23,0.869,0.23c0.454,0,0.684-0.218,0.684-0.495c0-0.374-0.368-0.541-0.747-0.541
			h-0.357V8.259h0.339c0.293,0,0.661-0.115,0.661-0.431c0-0.224-0.178-0.391-0.552-0.391c-0.305,0-0.627,0.132-0.776,0.225
			l-0.178-0.633c0.224-0.144,0.667-0.282,1.156-0.282c0.794,0,1.236,0.42,1.236,0.932c0,0.397-0.224,0.713-0.685,0.868v0.012
			c0.449,0.081,0.812,0.42,0.812,0.915c0,0.655-0.581,1.139-1.53,1.139c-0.483,0-0.891-0.127-1.109-0.259L78.314,9.691z"/>
		<path d="M83.983,10.979v0.288h-2.875v-0.288H83.983z"/>
		<path d="M87.205,10.445c-0.155,0.075-0.523,0.167-0.989,0.167c-1.34,0-2.03-0.84-2.03-1.95c0-1.323,0.943-2.053,2.116-2.053
			c0.454,0,0.8,0.092,0.955,0.173l-0.185,0.69c-0.172-0.075-0.42-0.144-0.735-0.144c-0.69,0-1.231,0.42-1.231,1.289
			c0,0.776,0.46,1.265,1.236,1.265c0.271,0,0.559-0.052,0.736-0.126L87.205,10.445z"/>
		<path d="M90.448,10.445c-0.155,0.075-0.523,0.167-0.989,0.167c-1.34,0-2.03-0.84-2.03-1.95c0-1.323,0.943-2.053,2.116-2.053
			c0.454,0,0.8,0.092,0.955,0.173l-0.185,0.69c-0.172-0.075-0.42-0.144-0.735-0.144c-0.69,0-1.231,0.42-1.231,1.289
			c0,0.776,0.46,1.265,1.236,1.265c0.271,0,0.559-0.052,0.736-0.126L90.448,10.445z"/>
		<path d="M92.329,8.749v0.581h-1.507V8.749H92.329z"/>
		<path d="M92.881,6.73c0.229-0.046,0.689-0.086,1.133-0.086c0.534,0,0.862,0.052,1.145,0.218c0.27,0.144,0.46,0.409,0.46,0.765
			c0,0.339-0.201,0.656-0.633,0.822v0.012c0.442,0.115,0.771,0.454,0.771,0.955c0,0.356-0.161,0.632-0.402,0.822
			c-0.282,0.224-0.754,0.351-1.524,0.351c-0.431,0-0.753-0.028-0.948-0.057V6.73z M93.749,8.208h0.287
			c0.466,0,0.708-0.189,0.708-0.477c0-0.293-0.225-0.449-0.621-0.449c-0.196,0-0.305,0.012-0.374,0.029V8.208z M93.749,9.927
			c0.086,0.017,0.189,0.017,0.339,0.017c0.397,0,0.748-0.155,0.748-0.563c0-0.391-0.351-0.546-0.788-0.546h-0.299V9.927z"/>
		<path d="M97.251,10.548V8.961l-1.225-2.289h1.007l0.391,0.932c0.121,0.282,0.207,0.489,0.299,0.742h0.012
			c0.086-0.242,0.179-0.466,0.293-0.742l0.392-0.932h0.983l-1.277,2.26v1.616H97.251z"/>
		<path d="M101.122,8.749v0.581h-1.507V8.749H101.122z"/>
		<path d="M101.702,9.651c0.23,0.121,0.599,0.241,0.972,0.241c0.403,0,0.615-0.167,0.615-0.425c0-0.236-0.184-0.38-0.649-0.541
			c-0.645-0.23-1.069-0.587-1.069-1.156c0-0.661,0.558-1.162,1.466-1.162c0.443,0,0.76,0.086,0.989,0.196l-0.195,0.702
			c-0.149-0.075-0.432-0.184-0.805-0.184c-0.38,0-0.564,0.178-0.564,0.374c0,0.248,0.213,0.356,0.72,0.552
			c0.684,0.253,1,0.609,1,1.162c0,0.65-0.494,1.202-1.559,1.202c-0.442,0-0.88-0.121-1.098-0.242L101.702,9.651z"/>
		<path d="M105.676,9.553l-0.27,0.995h-0.909l1.185-3.876h1.145l1.208,3.876h-0.943l-0.299-0.995H105.676z M106.659,8.898
			l-0.241-0.822c-0.063-0.23-0.132-0.523-0.189-0.748h-0.018c-0.052,0.23-0.115,0.523-0.173,0.748l-0.235,0.822H106.659z"/>
	</g>
	<g>
		<path d="M51.662,54.923l0.201,1.008c0.045,0.25,0.095,0.521,0.135,0.802h0.015c0.045-0.276,0.12-0.557,0.175-0.797l0.261-1.013
			h0.602l0.246,0.978c0.07,0.28,0.135,0.551,0.181,0.832h0.01c0.035-0.276,0.085-0.557,0.146-0.837l0.206-0.973h0.747l-0.752,2.452
			h-0.712l-0.23-0.857c-0.065-0.24-0.11-0.461-0.161-0.767h-0.01c-0.045,0.306-0.095,0.536-0.156,0.762l-0.246,0.862h-0.717
			l-0.717-2.452H51.662z"/>
		<path d="M55.467,54.923l0.201,1.008c0.045,0.25,0.095,0.521,0.135,0.802h0.015c0.045-0.276,0.12-0.557,0.175-0.797l0.261-1.013
			h0.602l0.246,0.978c0.07,0.28,0.135,0.551,0.181,0.832h0.01c0.035-0.276,0.085-0.557,0.146-0.837l0.206-0.973h0.747l-0.752,2.452
			h-0.712l-0.23-0.857c-0.065-0.24-0.11-0.461-0.161-0.767h-0.01c-0.045,0.306-0.095,0.536-0.156,0.762l-0.246,0.862h-0.717
			l-0.717-2.452H55.467z"/>
		<path d="M59.272,54.923l0.201,1.008c0.045,0.25,0.095,0.521,0.135,0.802h0.015c0.045-0.276,0.12-0.557,0.175-0.797l0.261-1.013
			h0.602l0.246,0.978c0.07,0.28,0.135,0.551,0.181,0.832h0.01c0.035-0.276,0.085-0.557,0.146-0.837l0.206-0.973h0.747l-0.752,2.452
			h-0.712l-0.23-0.857c-0.065-0.24-0.11-0.461-0.161-0.767h-0.01c-0.045,0.306-0.096,0.536-0.156,0.762l-0.246,0.862h-0.717
			l-0.717-2.452H59.272z"/>
		<path d="M62.696,57.43c-0.256,0-0.441-0.195-0.441-0.461c0-0.275,0.186-0.466,0.451-0.466c0.261,0,0.441,0.185,0.446,0.466
			c0,0.266-0.18,0.461-0.451,0.461H62.696z"/>
		<path d="M64.741,57.43c-0.717,0-1.268-0.471-1.268-1.263c0-0.792,0.521-1.298,1.313-1.298c0.747,0,1.248,0.516,1.248,1.258
			c0,0.892-0.637,1.303-1.288,1.303H64.741z M64.756,56.884c0.301,0,0.486-0.296,0.486-0.737c0-0.361-0.14-0.732-0.486-0.732
			c-0.361,0-0.501,0.371-0.501,0.737c0,0.416,0.176,0.732,0.497,0.732H64.756z"/>
		<path d="M66.506,55.746c0-0.321-0.01-0.591-0.02-0.822h0.662l0.035,0.341h0.01c0.18-0.256,0.461-0.396,0.817-0.396
			c0.537,0,1.018,0.466,1.018,1.248c0,0.893-0.566,1.313-1.113,1.313c-0.295,0-0.526-0.12-0.637-0.281h-0.01v1.218h-0.762V55.746z
			 M67.268,56.322c0,0.06,0.005,0.11,0.015,0.161c0.05,0.205,0.226,0.361,0.446,0.361c0.331,0,0.526-0.276,0.526-0.692
			c0-0.391-0.175-0.687-0.516-0.687c-0.216,0-0.406,0.161-0.456,0.386c-0.01,0.04-0.015,0.09-0.015,0.135V56.322z"/>
		<path d="M70.105,56.387c0.025,0.321,0.336,0.472,0.692,0.472c0.261,0,0.471-0.035,0.677-0.105l0.101,0.516
			c-0.251,0.105-0.557,0.156-0.888,0.156c-0.832,0-1.308-0.481-1.308-1.253c0-0.622,0.391-1.309,1.238-1.309
			c0.792,0,1.093,0.617,1.093,1.223c0,0.13-0.015,0.246-0.025,0.306L70.105,56.387z M71.002,55.866c0-0.181-0.08-0.497-0.426-0.497
			c-0.326,0-0.457,0.296-0.477,0.497H71.002z"/>
		<path d="M72.166,55.706c0-0.306-0.01-0.562-0.02-0.782h0.662l0.035,0.341h0.015c0.1-0.161,0.346-0.396,0.757-0.396
			c0.501,0,0.877,0.335,0.877,1.058v1.449H73.73v-1.358c0-0.316-0.11-0.532-0.386-0.532c-0.21,0-0.336,0.146-0.391,0.286
			c-0.02,0.05-0.025,0.12-0.025,0.19v1.414h-0.762V55.706z"/>
		<path d="M75.926,54.257v0.667h0.546v0.562h-0.546v0.893c0,0.296,0.075,0.431,0.301,0.431c0.105,0,0.155-0.005,0.226-0.02
			l0.005,0.576c-0.095,0.035-0.281,0.065-0.491,0.065c-0.246,0-0.451-0.085-0.577-0.21c-0.14-0.146-0.21-0.381-0.21-0.727v-1.008
			h-0.326v-0.562h0.326v-0.461L75.926,54.257z"/>
		<path d="M76.913,53.816h0.762v1.403h0.01c0.081-0.11,0.181-0.195,0.301-0.255c0.115-0.061,0.256-0.095,0.396-0.095
			c0.486,0,0.858,0.335,0.858,1.078v1.429h-0.762v-1.349c0-0.321-0.11-0.542-0.396-0.542c-0.2,0-0.326,0.13-0.381,0.271
			c-0.02,0.045-0.025,0.11-0.025,0.166v1.454h-0.762V53.816z"/>
		<path d="M80.227,54.603c-0.256,0-0.421-0.18-0.421-0.406c0-0.23,0.17-0.406,0.431-0.406s0.422,0.176,0.427,0.406
			c0,0.226-0.166,0.406-0.432,0.406H80.227z M79.851,57.375v-2.452h0.762v2.452H79.851z"/>
		<path d="M81.224,55.706c0-0.306-0.01-0.562-0.02-0.782h0.661l0.035,0.341h0.016c0.1-0.161,0.346-0.396,0.757-0.396
			c0.501,0,0.877,0.335,0.877,1.058v1.449h-0.762v-1.358c0-0.316-0.11-0.532-0.387-0.532c-0.21,0-0.335,0.146-0.391,0.286
			c-0.02,0.05-0.025,0.12-0.025,0.19v1.414h-0.762V55.706z"/>
		<path d="M86.483,57.019c0,0.471-0.096,0.857-0.376,1.103c-0.266,0.23-0.632,0.301-0.993,0.301c-0.325,0-0.661-0.065-0.882-0.186
			l0.15-0.582c0.155,0.09,0.421,0.186,0.712,0.186c0.361,0,0.637-0.19,0.637-0.647v-0.155h-0.01
			c-0.146,0.201-0.382,0.316-0.662,0.316c-0.606,0-1.038-0.491-1.038-1.193c0-0.792,0.507-1.293,1.113-1.293
			c0.336,0,0.547,0.145,0.672,0.346h0.01l0.025-0.291h0.661c-0.01,0.161-0.02,0.366-0.02,0.732V57.019z M85.722,55.921
			c0-0.045-0.006-0.095-0.016-0.141c-0.055-0.201-0.2-0.336-0.411-0.336c-0.28,0-0.501,0.251-0.501,0.697
			c0,0.366,0.181,0.652,0.496,0.652c0.2,0,0.356-0.13,0.406-0.306c0.02-0.06,0.025-0.141,0.025-0.206V55.921z"/>
		<path d="M87.335,57.43c-0.255,0-0.44-0.195-0.44-0.461c0-0.275,0.186-0.466,0.451-0.466c0.261,0,0.44,0.185,0.446,0.466
			c0,0.266-0.181,0.461-0.451,0.461H87.335z"/>
		<path d="M89.38,57.43c-0.717,0-1.269-0.471-1.269-1.263c0-0.792,0.521-1.298,1.313-1.298c0.747,0,1.249,0.516,1.249,1.258
			c0,0.892-0.637,1.303-1.289,1.303H89.38z M89.396,56.884c0.301,0,0.485-0.296,0.485-0.737c0-0.361-0.14-0.732-0.485-0.732
			c-0.361,0-0.502,0.371-0.502,0.737c0,0.416,0.176,0.732,0.496,0.732H89.396z"/>
		<path d="M91.149,55.73c0-0.361-0.005-0.596-0.02-0.807h0.651l0.03,0.457h0.02c0.126-0.361,0.422-0.511,0.662-0.511
			c0.07,0,0.105,0.005,0.16,0.015v0.717c-0.064-0.01-0.125-0.021-0.21-0.021c-0.281,0-0.472,0.146-0.521,0.386
			c-0.01,0.05-0.016,0.105-0.016,0.17v1.238h-0.762L91.149,55.73z"/>
		<path d="M95.331,57.019c0,0.471-0.096,0.857-0.376,1.103c-0.266,0.23-0.632,0.301-0.993,0.301c-0.325,0-0.661-0.065-0.882-0.186
			l0.15-0.582c0.155,0.09,0.421,0.186,0.712,0.186c0.361,0,0.637-0.19,0.637-0.647v-0.155h-0.01
			c-0.146,0.201-0.382,0.316-0.662,0.316c-0.606,0-1.038-0.491-1.038-1.193c0-0.792,0.507-1.293,1.113-1.293
			c0.336,0,0.547,0.145,0.672,0.346h0.01l0.025-0.291h0.661c-0.01,0.161-0.02,0.366-0.02,0.732V57.019z M94.569,55.921
			c0-0.045-0.006-0.095-0.016-0.141c-0.055-0.201-0.2-0.336-0.411-0.336c-0.28,0-0.501,0.251-0.501,0.697
			c0,0.366,0.181,0.652,0.496,0.652c0.2,0,0.356-0.13,0.406-0.306c0.02-0.06,0.025-0.141,0.025-0.206V55.921z"/>
		<path d="M95.717,57.576l1.073-3.635h0.506l-1.072,3.635H95.717z"/>
		<path d="M97.602,55.746c0-0.321-0.01-0.591-0.02-0.822h0.661l0.035,0.341h0.01c0.181-0.256,0.462-0.396,0.817-0.396
			c0.536,0,1.018,0.466,1.018,1.248c0,0.893-0.566,1.313-1.112,1.313c-0.296,0-0.526-0.12-0.637-0.281h-0.011v1.218h-0.762V55.746z
			 M98.363,56.322c0,0.06,0.006,0.11,0.016,0.161c0.05,0.205,0.226,0.361,0.446,0.361c0.33,0,0.526-0.276,0.526-0.692
			c0-0.391-0.176-0.687-0.517-0.687c-0.216,0-0.406,0.161-0.456,0.386c-0.01,0.04-0.016,0.09-0.016,0.135V56.322z"/>
		<path d="M100.604,55.73c0-0.361-0.005-0.596-0.02-0.807h0.651l0.03,0.457h0.02c0.126-0.361,0.422-0.511,0.662-0.511
			c0.07,0,0.105,0.005,0.16,0.015v0.717c-0.064-0.01-0.125-0.021-0.21-0.021c-0.281,0-0.472,0.146-0.521,0.386
			c-0.01,0.05-0.016,0.105-0.016,0.17v1.238H100.6L100.604,55.73z"/>
		<path d="M103.598,57.43c-0.717,0-1.269-0.471-1.269-1.263c0-0.792,0.521-1.298,1.313-1.298c0.747,0,1.249,0.516,1.249,1.258
			c0,0.892-0.637,1.303-1.289,1.303H103.598z M103.613,56.884c0.301,0,0.486-0.296,0.486-0.737c0-0.361-0.141-0.732-0.486-0.732
			c-0.361,0-0.502,0.371-0.502,0.737c0,0.416,0.176,0.732,0.496,0.732H103.613z"/>
		<path d="M107.753,53.816v2.827c0,0.281,0.011,0.566,0.021,0.732h-0.677l-0.03-0.356h-0.015c-0.15,0.271-0.451,0.411-0.768,0.411
			c-0.581,0-1.048-0.496-1.048-1.258c-0.005-0.822,0.512-1.303,1.099-1.303c0.306,0,0.536,0.11,0.646,0.275h0.01v-1.328H107.753z
			 M106.991,55.966c0-0.045,0-0.095-0.01-0.14c-0.045-0.206-0.211-0.371-0.446-0.371c-0.351,0-0.526,0.311-0.526,0.697
			c0,0.411,0.205,0.672,0.521,0.672c0.221,0,0.4-0.15,0.446-0.366c0.01-0.05,0.015-0.11,0.015-0.17V55.966z"/>
		<path d="M110.676,56.588c0,0.321,0.01,0.582,0.02,0.787h-0.661l-0.035-0.346h-0.016c-0.095,0.15-0.325,0.401-0.767,0.401
			c-0.502,0-0.862-0.311-0.862-1.068v-1.439h0.762v1.319c0,0.356,0.115,0.571,0.386,0.571c0.211,0,0.336-0.146,0.382-0.266
			c0.02-0.045,0.029-0.1,0.029-0.166v-1.459h0.763V56.588z"/>
		<path d="M113.127,57.315c-0.135,0.065-0.391,0.115-0.682,0.115c-0.792,0-1.299-0.486-1.299-1.258c0-0.717,0.491-1.303,1.404-1.303
			c0.2,0,0.421,0.035,0.581,0.095l-0.12,0.566c-0.09-0.04-0.226-0.075-0.426-0.075c-0.401,0-0.662,0.286-0.657,0.687
			c0,0.451,0.301,0.692,0.672,0.692c0.181,0,0.321-0.03,0.437-0.08L113.127,57.315z"/>
		<path d="M114.48,54.257v0.667h0.546v0.562h-0.546v0.893c0,0.296,0.075,0.431,0.301,0.431c0.105,0,0.155-0.005,0.226-0.02
			l0.005,0.576c-0.096,0.035-0.281,0.065-0.491,0.065c-0.246,0-0.451-0.085-0.576-0.21c-0.141-0.146-0.211-0.381-0.211-0.727v-1.008
			h-0.326v-0.562h0.326v-0.461L114.48,54.257z"/>
		<path d="M115.463,56.713c0.141,0.085,0.431,0.18,0.656,0.18c0.231,0,0.326-0.075,0.326-0.2c0-0.13-0.075-0.19-0.355-0.286
			c-0.512-0.165-0.707-0.446-0.702-0.731c0-0.461,0.391-0.807,0.998-0.807c0.285,0,0.536,0.07,0.687,0.145l-0.131,0.521
			c-0.11-0.055-0.325-0.135-0.531-0.135c-0.186,0-0.291,0.075-0.291,0.195c0,0.121,0.096,0.181,0.396,0.286
			c0.466,0.156,0.656,0.396,0.662,0.752c0,0.461-0.356,0.797-1.059,0.797c-0.32,0-0.606-0.075-0.792-0.175L115.463,56.713z"/>
		<path d="M117.418,57.576l1.073-3.635h0.506l-1.072,3.635H117.418z"/>
		<path d="M119.303,55.706c0-0.306-0.01-0.562-0.02-0.782h0.661l0.035,0.341h0.016c0.1-0.161,0.346-0.396,0.757-0.396
			c0.501,0,0.877,0.335,0.877,1.058v1.449h-0.762v-1.358c0-0.316-0.11-0.532-0.387-0.532c-0.21,0-0.335,0.146-0.391,0.286
			c-0.02,0.05-0.025,0.12-0.025,0.19v1.414h-0.762V55.706z"/>
		<path d="M122.616,54.603c-0.256,0-0.421-0.18-0.421-0.406c0-0.23,0.17-0.406,0.431-0.406s0.422,0.176,0.427,0.406
			c0,0.226-0.166,0.406-0.432,0.406H122.616z M122.24,57.375v-2.452h0.762v2.452H122.24z"/>
		<path d="M123.705,57.375v-1.89h-0.326v-0.562h0.326v-0.095c0-0.295,0.09-0.622,0.306-0.822c0.195-0.181,0.456-0.246,0.682-0.246
			c0.165,0,0.296,0.025,0.4,0.05l-0.029,0.586c-0.065-0.02-0.146-0.035-0.246-0.035c-0.251,0-0.355,0.195-0.355,0.436v0.125h0.491
			v0.562h-0.486v1.89H123.705z"/>
		<path d="M126.251,54.257v0.667h0.546v0.562h-0.546v0.893c0,0.296,0.075,0.431,0.301,0.431c0.105,0,0.155-0.005,0.226-0.02
			l0.005,0.576c-0.096,0.035-0.281,0.065-0.491,0.065c-0.246,0-0.451-0.085-0.576-0.21c-0.141-0.146-0.211-0.381-0.211-0.727v-1.008
			h-0.326v-0.562h0.326v-0.461L126.251,54.257z"/>
		<path d="M127.84,54.923l0.366,1.204c0.04,0.145,0.09,0.326,0.12,0.456h0.016c0.035-0.13,0.075-0.316,0.11-0.456l0.301-1.204h0.816
			l-0.571,1.614c-0.351,0.973-0.586,1.359-0.862,1.604c-0.261,0.23-0.541,0.316-0.736,0.336l-0.161-0.642
			c0.096-0.021,0.216-0.065,0.331-0.13c0.115-0.061,0.246-0.186,0.316-0.306c0.024-0.04,0.04-0.075,0.04-0.11
			c0-0.025-0.006-0.065-0.03-0.125l-0.902-2.241H127.84z"/>
		<path d="M129.891,55.706c0-0.306-0.01-0.562-0.02-0.782h0.646l0.03,0.336h0.015c0.105-0.16,0.326-0.391,0.742-0.391
			c0.32,0,0.566,0.165,0.672,0.421h0.01c0.095-0.13,0.2-0.23,0.32-0.301c0.136-0.075,0.286-0.12,0.467-0.12
			c0.471,0,0.827,0.331,0.827,1.063v1.444h-0.742v-1.329c0-0.356-0.115-0.562-0.36-0.562c-0.181,0-0.301,0.121-0.356,0.266
			c-0.015,0.055-0.025,0.13-0.025,0.19v1.434h-0.741v-1.374c0-0.306-0.11-0.517-0.356-0.517c-0.195,0-0.311,0.15-0.355,0.271
			c-0.025,0.06-0.03,0.13-0.03,0.195v1.424h-0.742V55.706z"/>
		<path d="M134.577,54.603c-0.256,0-0.421-0.18-0.421-0.406c0-0.23,0.17-0.406,0.431-0.406s0.422,0.176,0.427,0.406
			c0,0.226-0.166,0.406-0.432,0.406H134.577z M134.201,57.375v-2.452h0.762v2.452H134.201z"/>
		<path d="M136.428,54.257v0.667h0.546v0.562h-0.546v0.893c0,0.296,0.075,0.431,0.301,0.431c0.105,0,0.155-0.005,0.226-0.02
			l0.005,0.576c-0.096,0.035-0.281,0.065-0.491,0.065c-0.246,0-0.451-0.085-0.576-0.21c-0.141-0.146-0.211-0.381-0.211-0.727v-1.008
			h-0.326v-0.562h0.326v-0.461L136.428,54.257z"/>
		<path d="M138.268,54.257v0.667h0.546v0.562h-0.546v0.893c0,0.296,0.075,0.431,0.301,0.431c0.105,0,0.155-0.005,0.226-0.02
			l0.005,0.576c-0.096,0.035-0.281,0.065-0.491,0.065c-0.246,0-0.451-0.085-0.576-0.21c-0.141-0.146-0.211-0.381-0.211-0.727v-1.008
			h-0.326v-0.562h0.326v-0.461L138.268,54.257z"/>
		<path d="M139.816,56.387c0.024,0.321,0.336,0.472,0.691,0.472c0.261,0,0.472-0.035,0.677-0.105l0.101,0.516
			c-0.251,0.105-0.557,0.156-0.888,0.156c-0.832,0-1.309-0.481-1.309-1.253c0-0.622,0.392-1.309,1.238-1.309
			c0.792,0,1.093,0.617,1.093,1.223c0,0.13-0.015,0.246-0.024,0.306L139.816,56.387z M140.714,55.866
			c0-0.181-0.081-0.497-0.427-0.497c-0.325,0-0.456,0.296-0.476,0.497H140.714z"/>
		<path d="M141.882,55.73c0-0.361-0.005-0.596-0.02-0.807h0.651l0.03,0.457h0.02c0.126-0.361,0.422-0.511,0.662-0.511
			c0.07,0,0.105,0.005,0.16,0.015v0.717c-0.064-0.01-0.125-0.021-0.21-0.021c-0.281,0-0.472,0.146-0.521,0.386
			c-0.01,0.05-0.016,0.105-0.016,0.17v1.238h-0.762L141.882,55.73z"/>
	</g>
	<polyline fill="none" stroke="#000000" stroke-width="2" points="94.457,18.445 108.859,18.445 116.059,11.245 	"/>
	<polyline fill="none" stroke="#000000" stroke-width="2" points="155.659,58.046 148.459,58.046 141.26,47.246 	"/>
	<polyline fill="none" stroke="#000000" stroke-width="2" points="130.459,40.046 144.859,40.046 152.06,32.846 155.659,32.846 	"/>
	<g>
		<path d="M35.588,21.205c0.107,0.016,0.193,0.011,0.355,0c0.252-0.011,0.505-0.086,0.693-0.215c0.231-0.15,0.382-0.381,0.441-0.645
			l-0.011-0.005c-0.162,0.161-0.387,0.253-0.71,0.253c-0.591,0-1.086-0.409-1.086-1.091c0-0.683,0.548-1.258,1.317-1.258
			c0.898,0,1.322,0.688,1.322,1.505c0,0.731-0.231,1.258-0.607,1.607c-0.333,0.307-0.795,0.468-1.344,0.489
			c-0.135,0.011-0.274,0.005-0.371,0V21.205z M36.561,18.839c-0.274,0-0.479,0.248-0.479,0.613c0,0.301,0.167,0.559,0.495,0.559
			c0.231,0,0.381-0.103,0.462-0.226c0.027-0.054,0.038-0.107,0.038-0.209c0.005-0.371-0.14-0.737-0.511-0.737H36.561z"/>
		<path d="M39.303,21.796l-1.161-3.624h0.898l0.441,1.532c0.124,0.436,0.236,0.844,0.322,1.295h0.016
			c0.091-0.435,0.205-0.865,0.328-1.279l0.462-1.548h0.871l-1.22,3.624H39.303z"/>
	</g>
	<g>
		<path d="M38.177,49.69c-0.236,0.081-0.685,0.191-1.133,0.191c-0.619,0-1.067-0.156-1.38-0.453
			c-0.307-0.297-0.479-0.741-0.479-1.239c0.005-1.128,0.826-1.773,1.939-1.773c0.438,0,0.776,0.086,0.942,0.161l-0.161,0.62
			c-0.186-0.085-0.413-0.146-0.786-0.146c-0.64,0-1.128,0.363-1.128,1.098c0,0.705,0.443,1.113,1.073,1.113
			c0.171,0,0.312-0.02,0.373-0.045v-0.715h-0.524v-0.6h1.264V49.69z"/>
		<path d="M38.777,49.846v-3.395h0.896l0.705,1.244c0.202,0.358,0.398,0.781,0.554,1.164h0.01c-0.045-0.448-0.06-0.907-0.06-1.42
			v-0.987h0.705v3.395h-0.806l-0.725-1.31c-0.202-0.368-0.428-0.801-0.589-1.199h-0.02c0.025,0.453,0.035,0.932,0.035,1.486v1.022
			H38.777z"/>
		<path d="M42.252,46.502c0.282-0.051,0.649-0.076,1.032-0.076c0.65,0,1.073,0.105,1.396,0.353c0.353,0.262,0.574,0.685,0.574,1.29
			c0,0.649-0.237,1.098-0.559,1.375c-0.358,0.297-0.907,0.438-1.572,0.438c-0.398,0-0.685-0.025-0.871-0.05V46.502z M43.018,49.267
			c0.065,0.015,0.176,0.015,0.267,0.015c0.7,0.005,1.159-0.378,1.159-1.189c0-0.73-0.413-1.078-1.078-1.078
			c-0.167,0-0.282,0.015-0.348,0.03V49.267z"/>
	</g>
	<rect x="33.259" y="0.05" fill="none" stroke="#000000" stroke-width="0.1" width="147.401" height="65.197"/>
	<circle cx="76.406" cy="18.646" r="3.6"/>
	<circle cx="85.459" cy="18.447" r="3.6"/>
	<polyline fill="none" stroke="#000000" stroke-width="2" points="44.059,54.445 51.259,47.245 53.059,47.247 	"/>
	<line fill="none" stroke="#000000" stroke-width="2" x1="76.205" y1="18.446" x2="85.459" y2="18.447"/>
</g>
<g id="Layer_5">
	<rect x="33.259" y="0.05" fill="none" stroke="#000000" stroke-width="0.1" width="147.401" height="65.197"/>
	<g>
		<rect x="157.984" y="15.78" fill="none" stroke="#ED1C24" stroke-width="2" width="14.172" height="34.016"/>
		<rect x="172.156" y="15.78" fill="none" stroke="#ED1C24" stroke-width="2" width="8.504" height="34.016"/>
		<rect x="148.063" y="15.78" fill="none" stroke="#ED1C24" stroke-width="2" width="32.598" height="34.016"/>
		<rect x="157.984" y="18.615" fill="none" stroke="#ED1C24" stroke-width="2" width="14.172" height="28.346"/>
		<rect x="157.984" y="25.701" fill="none" stroke="#ED1C24" stroke-width="2" width="14.172" height="14.174"/>
	</g>
	<line fill="none" stroke="#ED1C24" stroke-width="2" x1="62.059" y1="18.446" x2="76.205" y2="18.446"/>
	<line fill="none" stroke="#ED1C24" stroke-width="2" x1="72.857" y1="47.245" x2="72.857" y2="32.845"/>
	<line fill="none" stroke="#ED1C24" stroke-width="2" x1="83.657" y1="47.245" x2="83.657" y2="32.845"/>
	<line fill="none" stroke="#ED1C24" stroke-width="2" x1="94.457" y1="32.845" x2="94.457" y2="18.445"/>
	<line fill="none" stroke="#ED1C24" stroke-width="2" x1="105.258" y1="40.046" x2="105.258" y2="25.646"/>
	<line fill="none" stroke="#ED1C24" stroke-width="2" x1="62.057" y1="32.845" x2="62.057" y2="47.245"/>
	<line fill="none" stroke="#ED1C24" stroke-width="2" x1="119.66" y1="25.646" x2="119.66" y2="40.046"/>
	<line fill="none" stroke="#ED1C24" stroke-width="2" x1="116.057" y1="32.845" x2="119.66" y2="32.845"/>
	<line fill="none" stroke="#ED1C24" stroke-width="2" x1="116.059" y1="11.245" x2="137.66" y2="11.245"/>
	<line fill="none" stroke="#ED1C24" stroke-width="2" x1="130.427" y1="25.301" x2="130.459" y2="40.046"/>
	<line fill="none" stroke="#ED1C24" stroke-width="2" x1="141.26" y1="32.845" x2="141.26" y2="47.246"/>
	<line fill="none" stroke="#ED1C24" stroke-width="2" x1="335.659" y1="162.293" x2="335.657" y2="176.693"/>
	<line fill="none" stroke="#ED1C24" stroke-width="2" x1="321.259" y1="176.693" x2="306.858" y2="176.691"/>
	<line fill="none" stroke="#ED1C24" stroke-width="2" x1="256.458" y1="140.295" x2="242.06" y2="140.293"/>
	<line fill="none" stroke="#ED1C24" stroke-width="2" x1="260.06" y1="180.293" x2="245.66" y2="180.292"/>
	<line fill="none" stroke="#ED1C24" stroke-width="2" x1="296.06" y1="176.693" x2="281.659" y2="176.691"/>
	<line fill="none" stroke="#ED1C24" stroke-width="2" x1="155.659" y1="7.646" x2="170.06" y2="7.646"/>
	<line fill="none" stroke="#ED1C24" stroke-width="2" x1="155.659" y1="58.046" x2="170.06" y2="58.046"/>
	<line fill="none" stroke="#ED1C24" stroke-width="2" x1="85.459" y1="18.447" x2="94.459" y2="47.247"/>
</g>
</svg>
